<svg width="577" height="587" viewBox="0 0 577 587" fill="none" xmlns="http://www.w3.org/2000/svg">
<g filter="url(#filter0_f_254_1690)">
<path d="M448.136 298.777C426.802 311.777 428.302 335.11 452.636 368.777C476.969 402.444 480.302 428.11 462.636 445.777C444.969 463.444 421.636 467.11 392.636 456.777C363.636 446.444 340.302 449.777 322.636 466.777C304.969 483.777 285.302 489.944 263.636 485.277C241.969 480.61 220.636 474.444 199.636 466.777C178.636 459.11 165.636 443.277 160.636 419.277C155.636 395.277 143.969 376.61 125.636 363.277C107.302 349.944 98.8023 332.61 100.136 311.277C101.469 289.944 110.136 271.277 126.136 255.277C142.136 239.277 140.802 214.777 122.136 181.777C103.469 148.777 106.969 128.277 132.636 120.277C158.302 112.277 183.136 109.777 207.136 112.777C231.136 115.777 251.969 114.944 269.636 110.277C287.302 105.61 305.969 102.277 325.636 100.277C345.302 98.2769 360.136 107.11 370.136 126.777C380.136 146.444 399.802 155.277 429.136 153.277C458.469 151.277 473.136 162.277 473.136 186.277C473.136 210.277 474.302 231.777 476.636 250.777C478.969 269.777 469.469 285.777 448.136 298.777Z" fill="#4FAEF0"/>
</g>
<defs>
<filter id="filter0_f_254_1690" x="0" y="0" width="576.981" height="586.785" filterUnits="userSpaceOnUse" color-interpolation-filters="sRGB">
<feFlood flood-opacity="0" result="BackgroundImageFix"/>
<feBlend mode="normal" in="SourceGraphic" in2="BackgroundImageFix" result="shape"/>
<feGaussianBlur stdDeviation="50" result="effect1_foregroundBlur_254_1690"/>
</filter>
</defs>
</svg>
