<svg width="90" height="100" viewBox="0 0 90 100" fill="none" xmlns="http://www.w3.org/2000/svg">
<path d="M37.0555 0.780302C36.5944 1.45417 36.488 2.80189 36.488 8.512C36.488 15.3216 36.488 15.4989 37.3038 16.2437C38.3678 17.2368 39.0062 17.2368 39.9638 16.2082C40.7086 15.428 40.744 15.0733 40.744 8.47654C40.744 0.780302 40.5312 3.8147e-05 38.616 3.8147e-05C37.9776 3.8147e-05 37.4102 0.28377 37.0555 0.780302Z" fill="#1C4B82"/>
<path d="M17.939 7.02242C16.6623 8.44108 17.0879 9.18588 22.2305 14.2931C25.1742 17.2013 27.4086 19.152 27.8342 19.152C28.9691 19.152 30.1041 18.1234 30.1041 17.0949C30.1041 16.3856 29.0401 15.1088 25.2097 11.2784C20.067 6.13576 19.2158 5.63923 17.939 7.02242Z" fill="#1C4B82"/>
<path d="M51.9869 11.2784C48.2275 15.0733 47.128 16.4211 47.128 17.1304C47.128 18.1234 48.2629 19.152 49.3978 19.152C49.8234 19.152 52.0578 17.2013 55.0016 14.2931C60.1797 9.15042 60.6762 8.26375 59.2575 6.98696C57.8389 5.71016 57.0941 6.13576 51.9869 11.2784Z" fill="#1C4B82"/>
<path d="M76.0332 9.29221C75.182 9.7178 66.7764 17.8042 54.8242 29.7564L35.0339 49.4758L34.36 48.5891C33.9699 48.0926 33.3315 47.0641 32.9059 46.2838C32.4803 45.5035 31.7 44.1913 31.1326 43.3401C30.5651 42.4889 30.104 41.7441 30.104 41.6377C30.104 41.1411 26.6993 37.098 25.0678 35.6438C23.0462 33.906 18.542 31.5297 15.4918 30.6431C12.5127 29.7564 8.1148 29.6145 6.66067 30.3239C4.67455 31.3169 0.312164 35.8212 0.312164 36.8852C0.312164 37.559 1.76629 39.226 6.48334 43.9785L12.69 50.1851L17.1942 63.8397L21.6985 77.4943L30.2459 86.1127C38.687 94.6601 41.5243 97.1783 43.936 98.2777C50.1072 101.151 56.5266 100.406 62.0239 96.2207C63.0879 95.4049 69.4364 89.2692 76.1041 82.5661C88.9076 69.7272 89.6524 68.7696 89.6878 65.7195C89.6878 62.5629 87.7372 59.5483 84.8644 58.3424C83.162 57.6331 83.0201 57.3848 83.2329 55.5051C83.5876 52.2422 81.5305 48.9438 78.3385 47.667C76.8135 47.0286 76.778 47.0286 76.8844 44.6878C77.0263 41.6731 75.182 38.4102 72.7703 37.3817C72.1319 37.098 71.5999 36.6724 71.5999 36.4596C71.5999 36.2113 74.8628 32.771 78.8351 28.7633C83.0556 24.5073 86.354 20.8188 86.815 19.9676C88.7657 16.0663 86.7796 11.0301 82.4881 9.11487C80.6793 8.29914 77.8065 8.37007 76.0332 9.29221ZM81.9916 14.0802C83.4812 15.5343 83.694 16.9884 82.7364 18.4426C82.3817 18.9391 77.7001 23.798 72.2738 29.2953C66.8119 34.7572 62.3786 39.5097 62.3786 39.8644C62.3786 40.5382 63.9037 42.2051 64.5066 42.2051C64.7194 42.2051 65.4996 41.815 66.2799 41.3185C68.337 40.0062 69.7556 40.1481 71.3516 41.7441C73.4796 43.8366 73.3023 44.6523 69.6847 49.1211C68.798 50.2206 68.7271 50.5043 69.0463 51.2491C69.2946 51.7456 69.8266 52.3131 70.2876 52.5259C70.997 52.8451 71.3871 52.7742 72.5929 51.9939C74.7209 50.6462 76.1396 50.7526 77.7356 52.384C79.8636 54.4766 79.6863 55.2923 76.0687 59.7611C75.182 60.8605 75.1111 61.1443 75.4303 61.8891C75.6785 62.3856 76.2105 62.9531 76.6716 63.1659C77.3809 63.4851 77.7711 63.4141 78.9769 62.6339C81.1049 61.2861 82.5236 61.3925 84.1196 63.024C85.7865 64.6555 85.8574 66.0032 84.4033 67.9538C82.7009 70.2237 59.4703 93.1351 58.1226 93.8444C53.2992 96.3625 49.4688 96.3625 44.6453 93.8444C43.3685 93.1706 26.451 76.6431 25.7417 75.3664C25.5289 74.9762 23.3299 68.5922 20.8473 61.2152L16.3076 47.7379L10.8812 42.3115L5.45481 36.8497L6.94441 35.4665C8.25667 34.2252 8.6468 34.0478 10.1719 34.0478C12.2999 34.0478 14.9598 34.7926 18.0454 36.2822C22.2659 38.3038 24.4294 40.4318 27.3731 45.3617C28.0115 46.3902 28.7918 47.667 29.111 48.199C29.4302 48.6955 30.104 49.9014 30.636 50.8944C32.3384 54.1928 33.296 55.2923 34.5374 55.3278C34.9984 55.3278 42.3045 48.2699 55.9946 34.6153C67.4148 23.2306 77.1327 13.6546 77.6292 13.3354C79.0833 12.3778 80.5375 12.5906 81.9916 14.0802Z" fill="#1C4B82"/>
</svg>
