<svg width="106" height="100" viewBox="0 0 106 100" fill="none" xmlns="http://www.w3.org/2000/svg">
<path d="M10.6536 0.914032C5.33136 3.0892 3.10991 5.40321 0.934743 10.8643C0.3331 12.3915 0.24054 17.5286 0.24054 49.9711C0.24054 84.5887 0.28682 87.4118 1.07358 89.3555C3.20247 94.8166 5.51649 97.0843 11.0701 99.3058C12.5048 99.8612 15.1428 100 24.6302 100H36.4317L37.7738 98.6579C39.5787 96.8067 39.5787 94.8629 37.7738 93.0117L36.4317 91.6696H25.2319C14.68 91.6696 13.9395 91.6233 12.2734 90.6977C11.3015 90.1423 10.0982 88.939 9.54286 87.9671C8.57098 86.2085 8.57098 85.9771 8.66354 61.2635L8.80238 36.3647H19.6782H30.5541L30.6929 58.9032L30.7855 81.3953L32.2202 82.5986C34.0251 84.1259 35.8763 84.1259 37.6812 82.5986L39.1159 81.3953L39.2085 58.9032L39.3473 36.3647H68.2725H97.1976L97.3364 61.2635C97.429 85.9771 97.429 86.2085 96.4571 87.9671C95.9018 88.939 94.6522 90.1423 93.7266 90.6977C92.0605 91.6233 91.4126 91.6696 83.6838 91.577L75.4459 91.4382L75.3071 68.946L75.2145 46.4538L74.0112 45.3431C73.1782 44.6026 72.2989 44.2323 71.0493 44.2323C69.7997 44.2323 68.9204 44.6026 68.0873 45.3431L66.8841 46.4538L66.7915 68.946L66.6527 91.4382L60.1734 91.6696C52.4446 91.9472 51.6116 92.3638 51.6116 95.7885C51.6116 97.5009 51.843 98.1025 52.8612 98.9356L54.0644 100H73.5484C91.0886 100 93.2175 99.9074 95.115 99.167C100.576 97.0381 102.844 94.7241 105.065 89.1704C105.667 87.6432 105.759 82.5061 105.759 50.0174C105.759 17.5286 105.667 12.3915 105.065 10.8643C102.844 5.31065 100.576 2.99664 95.115 0.867752C92.1531 -0.289253 83.2673 -0.289253 81.9251 0.867752C80.3516 2.20988 79.7962 4.01481 80.4442 5.44949C81.5549 7.94862 82.4342 8.31887 87.4325 8.36515C92.801 8.36515 94.8373 9.19819 96.4571 12.1138C97.3827 13.7337 97.429 14.4279 97.3364 20.722L97.1976 27.5714H53H8.80238L8.66354 20.5368C8.57098 13.9188 8.61726 13.3634 9.54286 11.9287C10.1445 11.0957 11.2552 9.93867 12.1346 9.38332C13.6618 8.36515 13.7081 8.36515 40.9671 8.36515H68.3187L69.6609 7.34698C70.8642 6.46766 71.0493 6.05114 71.0493 4.19993C71.0493 2.34872 70.8642 1.9322 69.6609 1.05287L68.3187 0.0347061L40.4118 0.080986C15.513 0.127266 12.3197 0.219826 10.6536 0.914032Z" fill="#1C4B82"/>
<path d="M71.003 15.261C70.0774 16.1866 69.6609 17.0659 69.6609 18.084C69.6609 20.0741 71.836 22.2493 73.8261 22.2493C75.8161 22.2493 77.9913 20.0741 77.9913 18.084C77.9913 17.0659 77.5748 16.1866 76.6492 15.261C75.7236 14.3353 74.8443 13.9188 73.8261 13.9188C72.8079 13.9188 71.9286 14.3353 71.003 15.261Z" fill="#1C4B82"/>
<path d="M84.8871 15.261C83.9615 16.1866 83.5449 17.0659 83.5449 18.084C83.5449 20.0741 85.7201 22.2493 87.7102 22.2493C89.7002 22.2493 91.8754 20.0741 91.8754 18.084C91.8754 17.0659 91.4589 16.1866 90.5333 15.261C89.6077 14.3353 88.7283 13.9188 87.7102 13.9188C86.692 13.9188 85.8127 14.3353 84.8871 15.261Z" fill="#1C4B82"/>
</svg>
