<svg width="250" height="94" viewBox="0 0 250 94" fill="none" xmlns="http://www.w3.org/2000/svg">
<g clip-path="url(#clip0_247_486)">
<g clip-path="url(#clip1_247_486)">
<g clip-path="url(#clip2_247_486)">
<g clip-path="url(#clip3_247_486)">
<g clip-path="url(#clip4_247_486)">
<g clip-path="url(#clip5_247_486)">
<g clip-path="url(#clip6_247_486)">
<path d="M122.93 28.8303L122.38 21.1347L117.25 20.982C116.68 20.982 115.051 21.0229 112.364 21.1041C111.956 21.9592 111.417 23.13 110.745 24.616C108.771 29.0136 106.816 32.6782 104.882 35.6098C103.314 37.9717 102.133 39.1523 101.339 39.1523C100.993 39.1523 100.709 39.0362 100.484 38.8041C100.26 38.5678 100.148 38.2465 100.148 37.8391C100.148 37.4318 100.367 36.9535 100.802 36.4038C101.242 35.8541 101.791 35.2599 102.451 34.6204C103.115 33.9773 103.98 32.9121 105.047 31.4261C106.117 29.9401 107.142 28.2299 108.119 26.2957C108.282 25.9903 109.107 24.2697 110.593 21.1347H110.44C110.114 21.1347 109.833 21.037 109.597 20.8415C109.365 20.6503 109.249 20.3816 109.249 20.0353C109.249 19.689 109.371 19.4044 109.615 19.1802C109.86 18.9561 110.182 18.8443 110.58 18.8443C110.976 18.8443 111.356 18.8547 111.723 18.8748C113.596 15.0472 115.306 12.4007 116.853 10.9349C113.229 11.2201 111.271 11.3624 110.977 11.3624C110.68 11.3624 110.405 11.2604 110.153 11.057C109.896 10.8536 109.768 10.5825 109.768 10.2447C109.768 9.91062 109.896 9.62601 110.153 9.38964C110.405 9.15755 110.684 9.0415 110.99 9.0415L117.647 9.22473L124.885 9.0415C125.251 9.0415 125.546 9.15327 125.77 9.37742C125.994 9.60158 126.106 9.89047 126.106 10.2447C126.106 10.6032 125.99 10.8781 125.758 11.0692C125.522 11.2647 125.22 11.3624 124.854 11.3624H124.121C124.121 14.6196 124.254 17.5617 124.518 20.188C124.783 22.8143 125.048 24.8402 125.312 26.2651C125.577 27.69 125.709 28.5903 125.709 28.9647C125.709 29.3434 125.593 29.6897 125.361 30.003C125.125 30.3206 124.813 30.4794 124.426 30.4794C124.04 30.4794 123.704 30.3371 123.419 30.0519C123.133 29.7666 122.971 29.3599 122.93 28.8303ZM121.831 10.996L120.915 10.9654C118.492 11.2708 116.008 13.9173 113.463 18.9054C115.621 18.9463 116.992 18.9665 117.574 18.9665C118.152 18.9665 119.703 18.9255 122.228 18.8443C121.963 15.3428 121.831 12.7263 121.831 10.996ZM144.032 15.5156C144.032 12.9095 142.963 11.6067 140.826 11.6067C139.95 11.6067 139.207 11.8101 138.596 12.2175C137.985 12.6249 137.68 13.2051 137.68 13.9582C137.68 14.4266 137.808 14.7564 138.065 14.9476C138.317 15.1431 138.677 15.2958 139.146 15.4057C139.614 15.5199 139.94 15.6115 140.123 15.6805C140.306 15.7538 140.476 15.8925 140.63 16.0959C140.781 16.2992 140.856 16.5949 140.856 16.9815C140.856 17.3681 140.703 17.6881 140.398 17.9404C140.093 18.1969 139.716 18.3252 139.268 18.3252C138.474 18.3252 137.731 17.9788 137.039 17.2868C136.347 16.5949 136 15.7703 136 14.8132C136 13.5105 136.567 12.2218 137.698 10.9471C138.826 9.6767 140.174 9.0415 141.742 9.0415C143.31 9.0415 144.507 9.51973 145.333 10.4768C146.156 11.4339 146.567 12.6957 146.567 14.2636C146.567 16.7066 145.637 19.5668 143.776 22.8448C141.911 26.1228 140.021 28.5048 138.108 29.9908C137.68 30.3163 137.314 30.4794 137.008 30.4794C136.336 30.4794 135.848 30.0824 135.542 29.2884L132.122 20.3101C131.715 19.2718 131.277 18.1865 130.809 17.0548C130.34 15.9267 129.995 15.0881 129.771 14.5384C129.546 13.9887 129.323 13.4286 129.099 12.8588C128.732 11.8614 128.549 11.1322 128.549 10.6722C128.549 10.216 128.661 9.83122 128.885 9.5179C129.109 9.2003 129.424 9.0415 129.832 9.0415C130.544 9.0415 131.073 9.45866 131.42 10.2936C131.481 10.4566 131.644 10.955 131.908 11.79C134.331 18.997 136.347 24.3107 137.955 27.731C139.502 26.3671 140.903 24.5287 142.157 22.2157C143.407 19.907 144.032 17.6735 144.032 15.5156ZM153.774 22.2646L154.049 28.8914C154.049 29.2988 153.912 29.6652 153.639 29.9908C153.363 30.3163 153.01 30.4794 152.583 30.4794C152.155 30.4794 151.805 30.3163 151.532 29.9908C151.256 29.6652 151.117 29.3391 151.117 29.0136C151.117 28.688 151.164 27.5581 151.257 25.6238C151.347 23.6895 151.392 21.8169 151.392 20.0048C151.392 18.1926 151.372 16.7005 151.331 15.5278C151.29 14.3594 151.245 13.4189 151.196 12.7061C151.143 11.9933 151.117 11.5353 151.117 11.3319H150.567C150.242 11.3319 149.952 11.2238 149.7 11.0082C149.443 10.7962 149.315 10.5214 149.315 10.1836C149.315 9.84955 149.443 9.57715 149.7 9.36521C149.952 9.14961 150.207 9.0415 150.463 9.0415C150.716 9.0415 151.062 9.07204 151.502 9.13312C151.937 9.19419 152.369 9.22473 152.797 9.22473L157.316 9.0415C158.538 9.0415 159.759 9.46904 160.981 10.3241C161.612 10.7718 162.121 11.4131 162.508 12.248C162.894 13.0829 163.088 14.0498 163.088 15.1492C163.088 16.9204 162.626 18.3923 161.702 19.565C160.773 20.7334 159.657 21.5928 158.355 22.1424C159.393 22.6512 160.437 23.5209 161.488 24.7504C162.534 25.9842 163.644 27.4665 164.816 29.1968C165.985 30.9271 166.885 32.1694 167.516 32.9225C168.147 33.6755 168.86 34.3639 169.654 34.9869C170.448 35.6056 171.008 36.074 171.333 36.3916C171.659 36.7049 171.822 37.0861 171.822 37.5338C171.822 37.9814 171.649 38.3644 171.303 38.682C170.956 38.9953 170.498 39.1523 169.929 39.1523C169.155 39.1523 168.306 38.5721 167.382 37.4116C166.453 36.2511 165.511 34.8464 164.554 33.1973C163.597 31.5482 162.595 29.8931 161.549 28.2318C160.498 26.5748 159.291 25.1657 157.927 24.0053C156.563 22.8448 155.179 22.2646 153.774 22.2646ZM155.82 11.1486L154.049 11.1792C154.049 11.4033 154.018 11.8712 153.957 12.5839C153.835 14.4364 153.774 16.7982 153.774 19.6688V20.4934C154.792 20.7786 155.51 20.9209 155.93 20.9209C156.345 20.9209 156.736 20.8843 157.102 20.811C157.469 20.742 157.886 20.599 158.355 20.3834C158.823 20.1715 159.24 19.9028 159.607 19.5772C159.973 19.2517 160.285 18.8034 160.541 18.2335C160.793 17.6637 160.92 17.012 160.92 16.2791C160.92 14.528 160.427 13.2356 159.442 12.4007C158.452 11.5658 157.245 11.1486 155.82 11.1486Z" fill="white"/>
<path d="M113.188 54.2077L113.463 60.8345C113.463 61.2419 113.327 61.6084 113.054 61.9339C112.777 62.2594 112.425 62.4225 111.997 62.4225C111.57 62.4225 111.22 62.2594 110.947 61.9339C110.67 61.6084 110.532 61.2822 110.532 60.9567C110.532 60.6311 110.579 59.5012 110.672 57.5669C110.762 55.6326 110.806 53.76 110.806 51.9479C110.806 50.1357 110.786 48.6436 110.745 47.471C110.704 46.3026 110.66 45.362 110.611 44.6492C110.558 43.9365 110.532 43.4784 110.532 43.275H109.982C109.656 43.275 109.367 43.1669 109.115 42.9513C108.858 42.7394 108.73 42.4645 108.73 42.1268C108.73 41.7927 108.858 41.5203 109.115 41.3083C109.367 41.0927 109.621 40.9846 109.878 40.9846C110.13 40.9846 110.477 41.0152 110.916 41.0762C111.352 41.1373 111.784 41.1678 112.211 41.1678L116.731 40.9846C117.952 40.9846 119.174 41.4122 120.395 42.2672C121.026 42.7149 121.536 43.3562 121.922 44.1911C122.309 45.0261 122.503 45.9929 122.503 47.0923C122.503 48.8635 122.04 50.3355 121.116 51.5081C120.188 52.6765 119.072 53.5359 117.769 54.0856C118.807 54.5943 119.852 55.4641 120.902 56.6935C121.949 57.9273 123.058 59.4096 124.231 61.1399C125.399 62.8702 126.3 64.1125 126.931 64.8656C127.562 65.6187 128.274 66.307 129.068 66.93C129.862 67.5487 130.422 68.0171 130.748 68.3347C131.073 68.6481 131.236 69.0292 131.236 69.4769C131.236 69.9246 131.064 70.3075 130.717 70.6251C130.371 70.9384 129.913 71.0954 129.343 71.0954C128.569 71.0954 127.72 70.5152 126.796 69.3547C125.868 68.1943 124.925 66.7895 123.968 65.1404C123.011 63.4914 122.01 61.8362 120.963 60.1749C119.913 58.5179 118.705 57.1088 117.342 55.9484C115.978 54.7879 114.593 54.2077 113.188 54.2077ZM115.234 43.0918L113.463 43.1223C113.463 43.3465 113.433 43.8143 113.372 44.5271C113.249 46.3795 113.188 48.7414 113.188 51.612V52.4365C114.206 52.7217 114.925 52.864 115.344 52.864C115.76 52.864 116.151 52.8274 116.517 52.7541C116.883 52.6851 117.301 52.5421 117.769 52.3265C118.238 52.1146 118.655 51.8459 119.021 51.5203C119.388 51.1948 119.699 50.7465 119.956 50.1767C120.208 49.6068 120.334 48.9551 120.334 48.2222C120.334 46.4711 119.841 45.1788 118.856 44.3438C117.867 43.5089 116.659 43.0918 115.234 43.0918ZM131.878 56.1622L128.244 55.8568C127.897 55.8568 127.623 55.8873 127.419 55.9484C127.541 57.1088 128.034 58.0757 128.897 58.8495C129.765 59.6234 130.789 60.01 131.969 60.01C133.11 60.01 134.138 59.5928 135.054 58.7579C135.379 58.4727 135.624 58.3304 135.787 58.3304C135.95 58.3304 136.092 58.3915 136.214 58.5136C136.336 58.6358 136.397 58.7683 136.397 58.9106C136.397 59.5012 135.823 60.2341 134.675 61.1094C133.523 61.9846 132.22 62.4225 130.766 62.4225C129.308 62.4225 128.046 61.8319 126.979 60.6513C125.909 59.4707 125.373 58.0048 125.373 56.2538C125.373 54.0141 126.218 52.1311 127.908 50.6042C129.598 49.0773 131.461 48.3138 133.496 48.3138C134.351 48.3138 135.049 48.4604 135.591 48.7536C136.129 49.051 136.397 49.4272 136.397 49.8835C136.397 50.3434 136.261 50.716 135.988 51.0012C135.712 51.2864 135.44 51.4287 135.176 51.4287C134.911 51.4287 134.459 51.3066 133.82 51.0623C133.177 50.818 132.56 50.6958 131.969 50.6958C130.87 50.6958 129.919 51.0256 129.117 51.6852C128.311 52.3491 127.775 53.1694 127.511 54.1466L131.725 53.9023C132.661 53.9023 133.13 54.2688 133.13 55.0017C133.13 55.7755 132.713 56.1622 131.878 56.1622ZM141.131 62.4225C140.378 62.4225 139.767 62.2698 139.299 61.9644C138.83 61.6591 138.596 61.2761 138.596 60.8162C138.596 60.36 138.732 59.9935 139.005 59.7168C139.282 59.4438 139.557 59.3076 139.83 59.3076C140.107 59.3076 140.561 59.4298 141.192 59.6741C141.823 59.9184 142.481 60.0405 143.165 60.0405C143.845 60.0405 144.531 59.8616 145.223 59.5031C145.915 59.1488 146.261 58.7109 146.261 58.1899C146.261 57.6726 146.001 57.2719 145.48 56.9867C144.962 56.7015 144.337 56.4718 143.604 56.2965C142.872 56.1255 142.139 55.9282 141.406 55.7041C140.673 55.4799 140.046 55.1379 139.525 54.678C139.007 54.2218 138.749 53.658 138.749 52.9862C138.749 51.8868 139.451 50.832 140.856 49.8224C142.261 48.8165 143.808 48.3138 145.498 48.3138C146.312 48.3138 146.939 48.4604 147.379 48.7536C147.815 49.051 148.033 49.4333 148.033 49.9018C148.033 50.3703 147.894 50.7404 147.617 51.0134C147.344 51.2901 147.072 51.4287 146.799 51.4287C146.522 51.4287 146.068 51.3066 145.437 51.0623C144.806 50.818 144.15 50.6958 143.47 50.6958C142.786 50.6958 142.194 50.8381 141.693 51.1233C141.196 51.4086 140.948 51.7543 140.948 52.1616C140.948 52.569 141.339 52.9251 142.12 53.2305C142.906 53.5359 143.768 53.7802 144.704 53.9634C145.64 54.1466 146.501 54.507 147.287 55.0445C148.069 55.5862 148.46 56.2843 148.46 57.1394C148.46 58.4629 147.686 59.6741 146.139 60.7734C144.592 61.8728 142.922 62.4225 141.131 62.4225ZM157.316 56.1622L153.682 55.8568C153.336 55.8568 153.061 55.8873 152.858 55.9484C152.98 57.1088 153.474 58.0757 154.342 58.8495C155.205 59.6234 156.227 60.01 157.408 60.01C158.548 60.01 159.576 59.5928 160.492 58.7579C160.818 58.4727 161.062 58.3304 161.225 58.3304C161.388 58.3304 161.53 58.3915 161.653 58.5136C161.775 58.6358 161.836 58.7683 161.836 58.9106C161.836 59.5012 161.262 60.2341 160.114 61.1094C158.961 61.9846 157.658 62.4225 156.205 62.4225C154.747 62.4225 153.485 61.8319 152.418 60.6513C151.347 59.4707 150.812 58.0048 150.812 56.2538C150.812 54.0141 151.656 52.1311 153.346 50.6042C155.036 49.0773 156.899 48.3138 158.935 48.3138C159.79 48.3138 160.488 48.4604 161.03 48.7536C161.567 49.051 161.836 49.4272 161.836 49.8835C161.836 50.3434 161.7 50.716 161.427 51.0012C161.15 51.2864 160.879 51.4287 160.614 51.4287C160.35 51.4287 159.898 51.3066 159.258 51.0623C158.615 50.818 157.998 50.6958 157.408 50.6958C156.308 50.6958 155.357 51.0256 154.556 51.6852C153.749 52.3491 153.214 53.1694 152.949 54.1466L157.164 53.9023C158.1 53.9023 158.568 54.2688 158.568 55.0017C158.568 55.7755 158.151 56.1622 157.316 56.1622ZM167.119 55.0628L167.363 60.5902C167.363 61.1399 167.227 61.5815 166.954 61.9156C166.677 62.2533 166.345 62.4225 165.959 62.4225C165.572 62.4225 165.256 62.2637 165.012 61.9461C164.768 61.6328 164.645 61.201 164.645 60.6513C164.645 60.1016 164.696 59.318 164.798 58.2998C165.001 56.2642 165.103 54.5436 165.103 53.1389C165.103 52.5281 164.916 51.9418 164.542 51.3799C164.163 50.8222 163.974 50.319 163.974 49.8713C163.974 49.4236 164.126 49.051 164.432 48.7536C164.737 48.4604 165.083 48.3138 165.47 48.3138C166.488 48.3138 166.997 49.1182 166.997 50.7263V51.9173C167.608 50.818 168.341 49.9427 169.196 49.291C170.051 48.6394 170.834 48.3138 171.547 48.3138C172.26 48.3138 172.805 48.4909 173.184 48.8452C173.558 49.2037 173.746 49.6777 173.746 50.2683C173.746 50.8589 173.604 51.3512 173.318 51.7463C173.033 52.1452 172.728 52.3449 172.402 52.3449C172.077 52.3449 171.828 52.2575 171.657 52.0822C171.482 51.9112 171.353 51.728 171.272 51.5326C171.191 51.3414 171.038 51.1582 170.814 50.9829C170.59 50.8118 170.305 50.7263 169.959 50.7263C169.368 50.7263 168.778 51.113 168.188 51.8868C167.597 52.6606 167.241 53.7191 167.119 55.0628ZM175.67 51.5814C175.201 50.7465 174.967 50.1198 174.967 49.7003C174.967 49.2849 175.09 48.949 175.334 48.6925C175.578 48.4402 175.934 48.3138 176.403 48.3138C176.871 48.3138 177.308 48.6943 177.716 49.4559C178.123 50.2212 178.815 51.8092 179.792 54.2199C180.77 56.6343 181.472 58.4525 181.9 59.6741L182.144 60.3459C182.857 59.8982 183.646 58.8556 184.514 57.2188C185.377 55.5777 185.808 54.0959 185.808 52.7724C185.808 52.3247 185.686 51.7787 185.442 51.1356C185.198 50.4961 185.076 50.0038 185.076 49.6575C185.076 49.3112 185.214 48.9997 185.491 48.723C185.764 48.45 186.134 48.3138 186.602 48.3138C187.071 48.3138 187.453 48.5319 187.751 48.9673C188.044 49.4071 188.19 50.1522 188.19 51.2027C188.19 52.249 187.824 53.6684 187.091 55.4598C186.358 57.2512 185.452 58.8294 184.373 60.1932C183.193 61.6792 182.144 62.4225 181.228 62.4225C180.576 62.4225 180.047 61.8832 179.64 60.804C178.235 56.9152 176.911 53.8412 175.67 51.5814ZM200.467 58.1472C200.609 58.5136 200.911 59.0065 201.371 59.6252C201.827 60.2482 202.055 60.7533 202.055 61.1399C202.055 61.5265 201.953 61.8362 201.749 62.0683C201.546 62.3046 201.271 62.4225 200.925 62.4225C200.09 62.4225 199.347 61.5571 198.696 59.8268L198.451 59.1549C197.413 61.3335 195.856 62.4225 193.779 62.4225C192.741 62.4225 191.881 62.0909 191.202 61.427C190.517 60.7673 190.175 59.9385 190.175 58.9411C190.175 57.3941 190.705 56.0602 191.763 54.9406C192.822 53.8211 194.206 53.2201 195.917 53.1389C195.509 52.4261 195.057 51.8911 194.561 51.5326C194.06 51.1783 193.606 50.9706 193.199 50.9096C192.791 50.8485 192.409 50.8118 192.05 50.7996C191.696 50.7917 191.417 50.716 191.214 50.5736C191.01 50.4313 190.908 50.1504 190.908 49.7308C190.908 49.3155 191.078 48.9753 191.415 48.7108C191.749 48.4464 192.15 48.3138 192.619 48.3138C193.942 48.3138 195.245 48.9753 196.527 50.2988C197.81 51.6223 198.93 53.6989 199.887 56.5286L200.467 58.1472ZM195.153 54.7574C194.42 54.7574 193.765 55.0017 193.187 55.4903C192.604 55.9789 192.313 56.6099 192.313 57.3837C192.313 58.1575 192.574 58.8025 193.095 59.3198C193.612 59.8408 194.237 60.1016 194.97 60.1016C195.703 60.1016 196.334 59.8408 196.863 59.3198C197.393 58.8025 197.657 58.1881 197.657 57.4753C197.657 56.9665 197.566 56.492 197.382 56.0522C197.199 55.6167 197.087 55.348 197.047 55.246C196.517 54.9205 195.886 54.7574 195.153 54.7574ZM211.003 50.5736C210.901 50.5736 209.628 50.4924 207.185 50.3293C207.185 50.5938 207.144 51.6016 207.063 53.3526C206.982 55.1037 206.941 56.4004 206.941 57.2432C206.941 58.0903 207.13 58.7927 207.509 59.3504C207.883 59.9123 208.071 60.4174 208.071 60.8651C208.071 61.3128 207.918 61.6835 207.613 61.9767C207.307 62.2741 206.961 62.4225 206.575 62.4225C205.556 62.4225 205.048 61.6181 205.048 60.01L204.925 53.8107C204.925 52.5483 204.895 51.4183 204.834 50.421H204.101C203.816 50.421 203.582 50.3336 203.399 50.1583C203.215 49.9873 203.124 49.7491 203.124 49.4437C203.124 49.1383 203.215 48.8983 203.399 48.723C203.582 48.552 203.816 48.4665 204.101 48.4665H204.742C204.701 47.408 204.681 46.5976 204.681 46.0357C204.681 45.478 204.82 45.0297 205.096 44.692C205.369 44.3579 205.699 44.1911 206.086 44.1911C206.473 44.1911 206.788 44.3481 207.033 44.6614C207.277 44.979 207.399 45.4939 207.399 46.2067C207.399 46.9194 207.369 47.703 207.307 48.5581L211.003 48.3138C211.797 48.3138 212.194 48.6907 212.194 49.4437C212.194 50.1968 211.797 50.5736 211.003 50.5736ZM215.125 60.01C215.125 57.4448 215.075 55.1953 214.973 53.261C214.871 51.3267 214.82 50.187 214.82 49.8407C214.82 49.4944 214.959 49.1524 215.235 48.8146C215.508 48.4806 215.838 48.3138 216.225 48.3138C216.611 48.3138 216.927 48.4708 217.171 48.7841C217.416 49.1017 217.538 49.5598 217.538 50.1583C217.538 50.7612 217.466 51.7689 217.324 53.1816C217.182 54.5986 217.11 56.0705 217.11 57.5975C217.11 58.2082 217.238 58.7927 217.495 59.3504C217.747 59.9123 217.874 60.421 217.874 60.8773C217.874 61.3372 217.747 61.7098 217.495 61.995C217.238 62.2802 216.892 62.4225 216.457 62.4225C216.017 62.4225 215.685 62.1782 215.461 61.6896C215.237 61.201 215.125 60.6409 215.125 60.01ZM216.102 44.863C215.655 44.863 215.298 44.7408 215.034 44.4965C214.769 44.2522 214.637 43.8961 214.637 43.4277C214.637 42.9592 214.8 42.5586 215.125 42.2245C215.451 41.8867 215.838 41.7175 216.286 41.7175C216.733 41.7175 217.096 41.844 217.373 42.0962C217.646 42.3527 217.782 42.7149 217.782 43.1834C217.782 43.6518 217.613 44.0488 217.275 44.3744C216.941 44.6999 216.55 44.863 216.102 44.863ZM224.305 52.07C223.397 52.966 222.943 54.0654 222.943 55.3682C222.943 56.6709 223.397 57.7746 224.305 58.6785C225.209 59.5867 226.308 60.0405 227.603 60.0405C228.894 60.0405 229.977 59.5867 230.852 58.6785C231.728 57.7746 232.166 56.6709 232.166 55.3682C232.166 54.0654 231.728 52.966 230.852 52.07C229.977 51.174 228.894 50.7263 227.603 50.7263C226.308 50.7263 225.209 51.174 224.305 52.07ZM225.508 62.4225C224.206 62.4225 223.116 61.9137 222.241 60.8956C221.365 59.8775 220.928 58.601 220.928 57.0661C220.928 55.527 221.406 54.0385 222.363 52.6014C223.32 51.1679 224.439 50.0954 225.722 49.3827C227.005 48.6699 228.298 48.3138 229.6 48.3138C230.903 48.3138 231.993 48.8226 232.868 49.8407C233.743 50.8589 234.181 52.1354 234.181 53.6702C234.181 55.2094 233.703 56.6954 232.746 58.1288C231.789 59.566 230.669 60.6409 229.387 61.3537C228.104 62.0664 226.811 62.4225 225.508 62.4225ZM239.312 53.5053L239.495 60.9567C239.495 61.3842 239.373 61.7342 239.128 62.0072C238.884 62.2839 238.568 62.4225 238.182 62.4225C237.795 62.4225 237.465 62.2839 237.192 62.0072C236.916 61.7342 236.777 61.3842 236.777 60.9567L236.991 54.9101C236.991 54.9101 236.919 53.2103 236.777 49.8102C236.777 49.3827 236.916 49.0266 237.192 48.7414C237.465 48.4561 237.795 48.3138 238.182 48.3138C238.568 48.3138 238.884 48.45 239.128 48.723C239.373 48.9997 239.495 49.3417 239.495 49.7491C239.495 50.1565 239.484 50.4619 239.464 50.6653C240.605 49.0974 241.918 48.3138 243.404 48.3138C245.541 48.3138 246.916 49.7491 247.526 52.6197L248.687 57.8723C248.809 58.3408 249.059 58.8453 249.438 59.387C249.812 59.9245 250 60.407 250 60.8345C250 61.893 249.491 62.4225 248.473 62.4225C247.455 62.4225 246.793 61.6181 246.488 60.01L245.328 53.6275C244.941 51.5918 243.892 50.5736 242.182 50.5736C241.307 50.5736 240.625 50.8686 240.136 51.4593C239.648 52.0499 239.373 52.7315 239.312 53.5053Z" fill="white"/>
</g>
</g>
<g clip-path="url(#clip7_247_486)">
<g clip-path="url(#clip8_247_486)">
<path d="M102.356 82.1127H103.147L102.04 84.7166V86.3166H101.261V84.7227L100.154 82.1127H100.975L101.663 84.09L102.356 82.1127ZM104.607 83.0131C105.013 83.0131 105.328 83.1551 105.553 83.439C105.778 83.7229 105.891 84.1447 105.891 84.7044C105.891 85.2398 105.777 85.6576 105.55 85.9577C105.323 86.2578 105.009 86.4079 104.607 86.4079C104.206 86.4079 103.891 86.2607 103.664 85.9662C103.437 85.6726 103.324 85.252 103.324 84.7044C103.324 84.1609 103.437 83.7432 103.664 83.4512C103.891 83.1591 104.206 83.0131 104.607 83.0131ZM104.607 83.5789C104.433 83.5789 104.305 83.6649 104.224 83.8369C104.143 84.0097 104.102 84.2988 104.102 84.7044C104.102 85.1141 104.143 85.4049 104.224 85.5769C104.305 85.7496 104.433 85.836 104.607 85.836C104.782 85.836 104.91 85.7496 104.991 85.5769C105.072 85.4049 105.112 85.1141 105.112 84.7044C105.112 84.2948 105.072 84.0048 104.991 83.8345C104.91 83.6641 104.782 83.5789 104.607 83.5789ZM108.652 83.0983V86.3166H108.002L107.966 85.909C107.864 86.0753 107.75 86.1998 107.624 86.2826C107.498 86.3661 107.352 86.4079 107.187 86.4079C106.951 86.4079 106.765 86.3248 106.63 86.1585C106.494 85.9922 106.426 85.7752 106.426 85.5075V83.0983H107.175V85.4649C107.175 85.7164 107.26 85.8421 107.43 85.8421C107.527 85.8421 107.614 85.8044 107.692 85.7289C107.768 85.6543 107.839 85.5481 107.905 85.4102V83.0983H108.652ZM110.763 83.0192C110.856 83.0192 110.939 83.0334 111.012 83.0618L110.891 83.7797C110.81 83.7594 110.735 83.7493 110.666 83.7493C110.511 83.7493 110.39 83.8162 110.301 83.95C110.211 84.0839 110.142 84.2826 110.094 84.5463V86.3166H109.345V83.0983H109.996L110.051 83.658C110.201 83.2322 110.438 83.0192 110.763 83.0192ZM114.389 82.1127H115.149L114.176 86.3166H113.209L112.199 82.1127H112.984L113.701 85.6353L114.389 82.1127ZM115.483 83.0983H116.231V86.3166H115.483V83.0983ZM115.854 81.4922C115.989 81.4922 116.097 81.5348 116.18 81.6199C116.264 81.7051 116.305 81.8146 116.305 81.9485C116.305 82.0783 116.264 82.1857 116.18 82.2709C116.097 82.3561 115.989 82.3987 115.854 82.3987C115.721 82.3987 115.613 82.3561 115.529 82.2709C115.446 82.1857 115.405 82.0783 115.405 81.9485C115.405 81.8146 115.446 81.7051 115.529 81.6199C115.613 81.5348 115.721 81.4922 115.854 81.4922ZM117.819 83.0131C118.2 83.0131 118.523 83.1389 118.786 83.3903L118.5 83.7979C118.387 83.7168 118.279 83.656 118.178 83.6154C118.076 83.5749 117.973 83.5546 117.868 83.5546C117.75 83.5546 117.658 83.5858 117.591 83.6483C117.524 83.7116 117.49 83.7979 117.49 83.9075C117.49 84.017 117.528 84.105 117.604 84.1715C117.678 84.2388 117.829 84.3171 118.056 84.4063C118.336 84.5158 118.543 84.6456 118.677 84.7957C118.811 84.9458 118.878 85.1465 118.878 85.398C118.878 85.7103 118.768 85.9565 118.549 86.1366C118.33 86.3175 118.052 86.4079 117.716 86.4079C117.496 86.4079 117.295 86.3682 117.111 86.2887C116.926 86.21 116.764 86.0997 116.627 85.9577L116.992 85.5562C117.219 85.7549 117.45 85.8543 117.685 85.8543C117.819 85.8543 117.924 85.819 118.001 85.7484C118.079 85.677 118.117 85.5785 118.117 85.4527C118.117 85.3595 118.101 85.2836 118.068 85.2252C118.036 85.166 117.979 85.1108 117.898 85.0597C117.817 85.0094 117.695 84.9539 117.533 84.893C117.253 84.7835 117.054 84.6558 116.934 84.5098C116.814 84.3637 116.754 84.1772 116.754 83.95C116.754 83.6783 116.851 83.454 117.044 83.2772C117.236 83.1012 117.494 83.0131 117.819 83.0131ZM119.346 83.0983H120.094V86.3166H119.346V83.0983ZM119.717 81.4922C119.851 81.4922 119.96 81.5348 120.043 81.6199C120.126 81.7051 120.167 81.8146 120.167 81.9485C120.167 82.0783 120.126 82.1857 120.043 82.2709C119.96 82.3561 119.851 82.3987 119.717 82.3987C119.583 82.3987 119.475 82.3561 119.392 82.2709C119.309 82.1857 119.267 82.0783 119.267 81.9485C119.267 81.8146 119.309 81.7051 119.392 81.6199C119.475 81.5348 119.583 81.4922 119.717 81.4922ZM121.932 83.0131C122.337 83.0131 122.652 83.1551 122.877 83.439C123.103 83.7229 123.215 84.1447 123.215 84.7044C123.215 85.2398 123.102 85.6576 122.875 85.9577C122.647 86.2578 122.333 86.4079 121.932 86.4079C121.53 86.4079 121.216 86.2607 120.989 85.9662C120.761 85.6726 120.648 85.252 120.648 84.7044C120.648 84.1609 120.761 83.7432 120.989 83.4512C121.216 83.1591 121.53 83.0131 121.932 83.0131ZM121.932 83.5789C121.757 83.5789 121.629 83.6649 121.548 83.8369C121.467 84.0097 121.427 84.2988 121.427 84.7044C121.427 85.1141 121.467 85.4049 121.548 85.5769C121.629 85.7496 121.757 85.836 121.932 85.836C122.106 85.836 122.234 85.7496 122.315 85.5769C122.396 85.4049 122.437 85.1141 122.437 84.7044C122.437 84.2948 122.396 84.0048 122.315 83.8345C122.234 83.6641 122.106 83.5789 121.932 83.5789ZM125.272 83.0131C125.503 83.0131 125.685 83.0963 125.819 83.2626C125.953 83.4289 126.02 83.6519 126.02 83.9318V86.3166H125.272V84.017C125.272 83.8628 125.25 83.7521 125.207 83.6848C125.165 83.6183 125.103 83.585 125.022 83.585C124.852 83.585 124.683 83.7452 124.517 84.0656V86.3166H123.769V83.0983H124.42L124.475 83.5181C124.584 83.3477 124.701 83.2208 124.824 83.1372C124.948 83.0545 125.097 83.0131 125.272 83.0131ZM126.986 85.4588C127.116 85.4588 127.222 85.5022 127.306 85.589C127.389 85.6766 127.43 85.7874 127.43 85.9212C127.43 85.978 127.421 86.0376 127.403 86.1001C127.385 86.1633 127.361 86.2323 127.333 86.3069C127.304 86.3823 127.286 86.4343 127.278 86.4627L126.956 87.357H126.536L126.755 86.3288C126.609 86.2234 126.536 86.0895 126.536 85.9273C126.536 85.7934 126.578 85.6819 126.664 85.5927C126.749 85.5034 126.856 85.4588 126.986 85.4588ZM130.575 82.0276C131.07 82.0276 131.452 82.208 131.719 82.569C131.987 82.93 132.121 83.4775 132.121 84.2116C132.121 84.9376 131.987 85.4852 131.719 85.8543C131.452 86.2234 131.07 86.4079 130.575 86.4079C130.085 86.4079 129.704 86.2254 129.434 85.8604C129.165 85.4953 129.03 84.9478 129.03 84.2177C129.03 83.4958 129.165 82.9503 129.434 82.5812C129.704 82.2121 130.085 82.0276 130.575 82.0276ZM130.575 82.6116C130.328 82.6116 130.144 82.7353 130.024 82.9827C129.905 83.2301 129.845 83.6418 129.845 84.2177C129.845 84.7977 129.906 85.2082 130.028 85.4491C130.15 85.6908 130.332 85.8117 130.575 85.8117C130.827 85.8117 131.012 85.692 131.132 85.4527C131.252 85.2134 131.312 84.7997 131.312 84.2116C131.312 83.6357 131.251 83.2249 131.129 82.9791C131.007 82.7341 130.823 82.6116 130.575 82.6116ZM134.889 83.0983V86.3166H134.238L134.201 85.909C134.1 86.0753 133.986 86.1998 133.861 86.2826C133.735 86.3661 133.589 86.4079 133.423 86.4079C133.187 86.4079 133.002 86.3248 132.865 86.1585C132.73 85.9922 132.662 85.7752 132.662 85.5075V83.0983H133.411V85.4649C133.411 85.7164 133.496 85.8421 133.666 85.8421C133.763 85.8421 133.851 85.8044 133.928 85.7289C134.005 85.6543 134.076 85.5481 134.141 85.4102V83.0983H134.889ZM136.999 83.0192C137.092 83.0192 137.175 83.0334 137.248 83.0618L137.126 83.7797C137.045 83.7594 136.97 83.7493 136.901 83.7493C136.747 83.7493 136.626 83.8162 136.536 83.95C136.447 84.0839 136.378 84.2826 136.33 84.5463V86.3166H135.581V83.0983H136.232L136.287 83.658C136.437 83.2322 136.674 83.0192 136.999 83.0192ZM141.531 86.3166H140.698L139.955 84.6193H139.882H139.584V86.3166H138.812V82.1127H139.803C140.817 82.1127 141.324 82.5244 141.324 83.3477C141.324 83.6033 141.268 83.8296 141.154 84.0267C141.04 84.223 140.87 84.3719 140.643 84.4733L141.531 86.3166ZM139.84 84.0596C140.079 84.0596 140.252 84.0028 140.359 83.8892C140.467 83.7756 140.521 83.5952 140.521 83.3477C140.521 83.1166 140.465 82.947 140.353 82.8391C140.242 82.7321 140.059 82.6785 139.803 82.6785H139.584V84.0596H139.84ZM143.046 83.0131C143.452 83.0131 143.767 83.1551 143.991 83.439C144.217 83.7229 144.33 84.1447 144.33 84.7044C144.33 85.2398 144.216 85.6576 143.989 85.9577C143.762 86.2578 143.448 86.4079 143.046 86.4079C142.644 86.4079 142.33 86.2607 142.103 85.9662C141.876 85.6726 141.762 85.252 141.762 84.7044C141.762 84.1609 141.876 83.7432 142.103 83.4512C142.33 83.1591 142.644 83.0131 143.046 83.0131ZM143.046 83.5789C142.872 83.5789 142.744 83.6649 142.663 83.8369C142.582 84.0097 142.541 84.2988 142.541 84.7044C142.541 85.1141 142.582 85.4049 142.663 85.5769C142.744 85.7496 142.872 85.836 143.046 85.836C143.22 85.836 143.348 85.7496 143.429 85.5769C143.51 85.4049 143.551 85.1141 143.551 84.7044C143.551 84.2948 143.51 84.0048 143.429 83.8345C143.348 83.6641 143.22 83.5789 143.046 83.5789ZM146.026 83.0131C146.431 83.0131 146.747 83.1551 146.973 83.439C147.197 83.7229 147.31 84.1447 147.31 84.7044C147.31 85.2398 147.196 85.6576 146.969 85.9577C146.742 86.2578 146.427 86.4079 146.026 86.4079C145.624 86.4079 145.31 86.2607 145.083 85.9662C144.856 85.6726 144.742 85.252 144.742 84.7044C144.742 84.1609 144.856 83.7432 145.083 83.4512C145.31 83.1591 145.624 83.0131 146.026 83.0131ZM146.026 83.5789C145.851 83.5789 145.724 83.6649 145.643 83.8369C145.561 84.0097 145.521 84.2988 145.521 84.7044C145.521 85.1141 145.561 85.4049 145.643 85.5769C145.724 85.7496 145.851 85.836 146.026 85.836C146.2 85.836 146.328 85.7496 146.409 85.5769C146.49 85.4049 146.531 85.1141 146.531 84.7044C146.531 84.2948 146.49 84.0048 146.409 83.8345C146.328 83.6641 146.2 83.5789 146.026 83.5789ZM150.741 83.0131C150.956 83.0131 151.128 83.0963 151.258 83.2626C151.388 83.4289 151.453 83.6519 151.453 83.9318V86.3166H150.716V84.0109C150.716 83.8568 150.696 83.746 150.656 83.6787C150.615 83.6122 150.556 83.5789 150.479 83.5789C150.321 83.5789 150.169 83.729 150.023 84.0291V86.3166H149.293V84.0109C149.293 83.7229 149.216 83.5789 149.062 83.5789C148.895 83.5789 148.741 83.729 148.599 84.0291V86.3166H147.863V83.0983H148.514L148.563 83.512C148.774 83.1794 149.027 83.0131 149.323 83.0131C149.473 83.0131 149.603 83.0598 149.713 83.1531C149.822 83.2464 149.905 83.3782 149.962 83.5485C150.177 83.1916 150.437 83.0131 150.741 83.0131ZM152.426 85.4588C152.564 85.4588 152.675 85.5055 152.761 85.5988C152.846 85.692 152.888 85.8036 152.888 85.9334C152.888 86.0631 152.846 86.1747 152.761 86.268C152.675 86.3613 152.564 86.4079 152.426 86.4079C152.292 86.4079 152.181 86.3613 152.094 86.268C152.007 86.1747 151.964 86.0631 151.964 85.9334C151.964 85.8036 152.007 85.692 152.094 85.5988C152.181 85.5055 152.292 85.4588 152.426 85.4588ZM152.426 83.293C152.564 83.293 152.675 83.3396 152.761 83.4329C152.846 83.5262 152.888 83.6377 152.888 83.7675C152.888 83.8973 152.846 84.0089 152.761 84.1021C152.675 84.1954 152.564 84.2421 152.426 84.2421C152.292 84.2421 152.181 84.1954 152.094 84.1021C152.007 84.0089 151.964 83.8973 151.964 83.7675C151.964 83.6377 152.007 83.5262 152.094 83.4329C152.181 83.3396 152.292 83.293 152.426 83.293ZM157.365 86.3166H156.531L155.789 84.6193H155.716H155.418V86.3166H154.645V82.1127H155.637C156.651 82.1127 157.158 82.5244 157.158 83.3477C157.158 83.6033 157.101 83.8296 156.988 84.0267C156.874 84.223 156.704 84.3719 156.477 84.4733L157.365 86.3166ZM155.674 84.0596C155.913 84.0596 156.086 84.0028 156.194 83.8892C156.301 83.7756 156.355 83.5952 156.355 83.3477C156.355 83.1166 156.299 82.947 156.188 82.8391C156.076 82.7321 155.893 82.6785 155.637 82.6785H155.418V84.0596H155.674ZM160.03 84.6314C160.03 84.6679 160.023 84.7714 160.011 84.9417H158.35C158.367 85.2743 158.425 85.5063 158.524 85.6377C158.623 85.7699 158.764 85.836 158.947 85.836C159.072 85.836 159.186 85.8145 159.287 85.7715C159.389 85.7294 159.498 85.6616 159.616 85.5683L159.926 85.9942C159.642 86.27 159.302 86.4079 158.904 86.4079C158.482 86.4079 158.159 86.2619 157.934 85.9699C157.709 85.6778 157.596 85.2662 157.596 84.7349C157.596 84.2035 157.704 83.7838 157.918 83.4755C158.133 83.1673 158.438 83.0131 158.831 83.0131C159.208 83.0131 159.502 83.1498 159.713 83.4232C159.924 83.6974 160.03 84.1001 160.03 84.6314ZM159.3 84.455V84.4124C159.3 84.1082 159.263 83.886 159.19 83.7456C159.117 83.6061 158.999 83.5363 158.837 83.5363C158.687 83.5363 158.573 83.6041 158.494 83.7395C158.415 83.8758 158.367 84.1143 158.35 84.455H159.3ZM161.447 83.0131C161.828 83.0131 162.151 83.1389 162.414 83.3903L162.128 83.7979C162.015 83.7168 161.907 83.656 161.806 83.6154C161.705 83.5749 161.601 83.5546 161.496 83.5546C161.378 83.5546 161.286 83.5858 161.218 83.6483C161.152 83.7116 161.119 83.7979 161.119 83.9075C161.119 84.017 161.156 84.105 161.231 84.1715C161.306 84.2388 161.457 84.3171 161.684 84.4063C161.964 84.5158 162.171 84.6456 162.305 84.7957C162.439 84.9458 162.506 85.1465 162.506 85.398C162.506 85.7103 162.396 85.9565 162.177 86.1366C161.958 86.3175 161.68 86.4079 161.344 86.4079C161.125 86.4079 160.923 86.3682 160.738 86.2887C160.554 86.21 160.393 86.0997 160.255 85.9577L160.62 85.5562C160.847 85.7549 161.078 85.8543 161.313 85.8543C161.447 85.8543 161.553 85.819 161.63 85.7484C161.707 85.677 161.745 85.5785 161.745 85.4527C161.745 85.3595 161.729 85.2836 161.697 85.2252C161.664 85.166 161.607 85.1108 161.526 85.0597C161.445 85.0094 161.323 84.9539 161.161 84.893C160.881 84.7835 160.681 84.6558 160.561 84.5098C160.442 84.3637 160.382 84.1772 160.382 83.95C160.382 83.6783 160.479 83.454 160.671 83.2772C160.864 83.1012 161.123 83.0131 161.447 83.0131ZM165.268 84.6314C165.268 84.6679 165.262 84.7714 165.249 84.9417H163.589C163.605 85.2743 163.662 85.5063 163.761 85.6377C163.861 85.7699 164.002 85.836 164.185 85.836C164.311 85.836 164.424 85.8145 164.525 85.7715C164.627 85.7294 164.736 85.6616 164.854 85.5683L165.164 85.9942C164.88 86.27 164.54 86.4079 164.142 86.4079C163.72 86.4079 163.397 86.2619 163.171 85.9699C162.947 85.6778 162.834 85.2662 162.834 84.7349C162.834 84.2035 162.942 83.7838 163.157 83.4755C163.372 83.1673 163.676 83.0131 164.069 83.0131C164.446 83.0131 164.74 83.1498 164.951 83.4232C165.162 83.6974 165.268 84.1001 165.268 84.6314ZM164.538 84.455V84.4124C164.538 84.1082 164.501 83.886 164.428 83.7456C164.355 83.6061 164.238 83.5363 164.075 83.5363C163.925 83.5363 163.81 83.6041 163.731 83.7395C163.652 83.8758 163.605 84.1143 163.589 84.455H164.538ZM167.207 83.0192C167.301 83.0192 167.384 83.0334 167.457 83.0618L167.335 83.7797C167.254 83.7594 167.179 83.7493 167.11 83.7493C166.956 83.7493 166.834 83.8162 166.745 83.95C166.656 84.0839 166.587 84.2826 166.538 84.5463V86.3166H165.79V83.0983H166.441L166.495 83.658C166.645 83.2322 166.883 83.0192 167.207 83.0192ZM169.312 83.0983H170.048L169.209 86.3166H168.327L167.463 83.0983H168.235L168.765 85.7143L169.312 83.0983ZM172.695 84.6314C172.695 84.6679 172.689 84.7714 172.677 84.9417H171.016C171.032 85.2743 171.09 85.5063 171.188 85.6377C171.288 85.7699 171.429 85.836 171.612 85.836C171.738 85.836 171.851 85.8145 171.953 85.7715C172.054 85.7294 172.164 85.6616 172.281 85.5683L172.591 85.9942C172.307 86.27 171.967 86.4079 171.569 86.4079C171.148 86.4079 170.824 86.2619 170.598 85.9699C170.374 85.6778 170.261 85.2662 170.261 84.7349C170.261 84.2035 170.369 83.7838 170.584 83.4755C170.799 83.1673 171.103 83.0131 171.496 83.0131C171.874 83.0131 172.168 83.1498 172.378 83.4232C172.589 83.6974 172.695 84.1001 172.695 84.6314ZM171.965 84.455V84.4124C171.965 84.1082 171.928 83.886 171.855 83.7456C171.782 83.6061 171.665 83.5363 171.502 83.5363C171.352 83.5363 171.238 83.6041 171.158 83.7395C171.079 83.8758 171.032 84.1143 171.016 84.455H171.965ZM174.117 82.1127H176.739L176.654 82.7211H175.79V86.3166H175.018V82.7211H174.117V82.1127ZM178.236 83.0131C178.642 83.0131 178.957 83.1551 179.181 83.439C179.407 83.7229 179.52 84.1447 179.52 84.7044C179.52 85.2398 179.406 85.6576 179.179 85.9577C178.952 86.2578 178.637 86.4079 178.236 86.4079C177.834 86.4079 177.52 86.2607 177.293 85.9662C177.066 85.6726 176.952 85.252 176.952 84.7044C176.952 84.1609 177.066 83.7432 177.293 83.4512C177.52 83.1591 177.834 83.0131 178.236 83.0131ZM178.236 83.5789C178.062 83.5789 177.934 83.6649 177.853 83.8369C177.772 84.0097 177.731 84.2988 177.731 84.7044C177.731 85.1141 177.772 85.4049 177.853 85.5769C177.934 85.7496 178.062 85.836 178.236 85.836C178.41 85.836 178.538 85.7496 178.619 85.5769C178.7 85.4049 178.741 85.1141 178.741 84.7044C178.741 84.2948 178.7 84.0048 178.619 83.8345C178.538 83.6641 178.41 83.5789 178.236 83.5789ZM181.649 81.7295L182.397 81.8085V86.3166H181.734L181.698 85.9455C181.507 86.2538 181.262 86.4079 180.961 86.4079C180.629 86.4079 180.374 86.2586 180.197 85.9601C180.021 85.6624 179.933 85.2459 179.933 84.7105C179.933 84.3698 179.979 84.0705 180.07 83.8125C180.161 83.5554 180.288 83.3579 180.45 83.22C180.613 83.0821 180.799 83.0131 181.01 83.0131C181.27 83.0131 181.483 83.1206 181.649 83.3356V81.7295ZM181.174 85.8421C181.268 85.8421 181.352 85.8097 181.426 85.7448C181.502 85.6799 181.576 85.5866 181.649 85.4649V83.9014C181.519 83.6824 181.371 83.5728 181.205 83.5728C180.876 83.5728 180.712 83.95 180.712 84.7044C180.712 85.1141 180.753 85.4061 180.834 85.5805C180.915 85.7549 181.028 85.8421 181.174 85.8421ZM185.146 85.5379C185.146 85.6434 185.16 85.7212 185.189 85.7715C185.217 85.8226 185.264 85.8644 185.328 85.8969L185.176 86.3957C185.01 86.3755 184.877 86.3308 184.778 86.2619C184.679 86.1929 184.604 86.0875 184.556 85.9455C184.369 86.2538 184.108 86.4079 183.771 86.4079C183.503 86.4079 183.29 86.3175 183.132 86.1366C182.974 85.9565 182.895 85.7164 182.895 85.4162C182.895 85.0674 183.004 84.8018 183.221 84.6193C183.438 84.4367 183.753 84.3455 184.166 84.3455H184.416V84.1204C184.416 83.9176 184.381 83.7744 184.31 83.6909C184.239 83.6081 184.124 83.5668 183.966 83.5668C183.775 83.5668 183.538 83.6195 183.254 83.7249L183.084 83.2382C183.246 83.1652 183.414 83.1093 183.588 83.0703C183.763 83.0322 183.929 83.0131 184.087 83.0131C184.793 83.0131 185.146 83.3701 185.146 84.0839V85.5379ZM183.972 85.8664C184.166 85.8664 184.314 85.7326 184.416 85.4649V84.7896H184.239C184.033 84.7896 183.882 84.8363 183.787 84.9295C183.691 85.0228 183.643 85.1668 183.643 85.3615C183.643 85.5278 183.672 85.6535 183.728 85.7387C183.785 85.8239 183.866 85.8664 183.972 85.8664ZM188.121 83.0983L187.269 86.3288C187.164 86.7182 186.993 87.0244 186.758 87.2475C186.523 87.4705 186.209 87.6003 185.815 87.6368L185.73 87.1075C185.985 87.0548 186.177 86.9704 186.306 86.8544C186.433 86.7393 186.533 86.56 186.606 86.3166H186.326L185.511 83.0983H186.271L186.807 85.8178L187.379 83.0983H188.121Z" fill="white"/>
</g>
</g>
</g>
</g>
<g clip-path="url(#clip9_247_486)">
<g clip-path="url(#clip10_247_486)">
<path d="M50.1628 0.606689C38.8245 0.606689 28.1663 5.02205 20.1495 13.0388L12.4321 20.7562C4.41536 28.773 0 39.4312 0 50.7695C0 62.1078 4.41536 72.766 12.4321 80.7828C20.4489 88.7996 31.1071 93.2149 42.4454 93.2149C53.7838 93.2149 64.442 88.7996 72.4587 80.7828L80.1761 73.0654C88.1929 65.0487 92.6082 54.3905 92.6082 43.0521C92.6082 31.7138 88.1929 21.0556 80.1761 13.0388C72.1593 5.02205 61.5011 0.606689 50.1628 0.606689ZM68.8213 77.1453C54.2767 91.6879 30.6142 91.6879 16.0696 77.1453C1.52598 62.6017 1.52598 38.9372 16.0696 24.3936C23.3414 17.1229 32.8934 13.4854 42.4454 13.4854C51.9975 13.4854 61.5485 17.1218 68.8213 24.3936C83.3649 38.9372 83.3649 62.6017 68.8213 77.1453ZM84.2303 58.2234C84.6656 55.7626 84.8866 53.2686 84.8909 50.7695C84.8909 39.4312 80.4755 28.773 72.4587 20.7562C64.442 12.7394 53.7838 8.32404 42.4454 8.32404C39.9193 8.32404 37.4292 8.55556 34.9925 8.98465C39.7686 6.86299 44.9367 5.76717 50.1628 5.76806C59.7148 5.76806 69.2658 9.40447 76.5387 16.6763C87.7525 27.8911 90.3105 44.5256 84.2303 58.2234Z" fill="white"/>
<path d="M42.4454 18.6138C36.0198 18.6065 29.741 20.5357 24.428 24.1497C24.3392 24.2033 24.2546 24.2635 24.1749 24.3298C15.7938 30.1394 10.2898 39.8211 10.2898 50.7694C10.2898 68.4998 24.7151 82.9251 42.4454 82.9251C53.3948 82.9251 63.0786 77.42 68.8882 69.0369C68.951 68.9556 69.0127 68.8754 69.0652 68.7889C72.6778 63.4745 74.6069 57.1955 74.6011 50.7694C74.6011 33.0391 60.1758 18.6138 42.4454 18.6138ZM42.4454 77.7802C27.5509 77.7802 15.4347 65.6639 15.4347 50.7694C15.4347 46.4107 16.4791 42.2927 18.321 38.6439C18.1162 40.1045 18.0114 41.5773 18.0072 43.0521C18.0072 60.7824 32.4324 75.2077 50.1628 75.2077C51.6476 75.2077 53.118 75.0935 54.5709 74.8939C50.8114 76.7936 46.6577 77.7823 42.4454 77.7802ZM65.0017 65.6032C60.601 68.5153 55.4398 70.0664 50.1628 70.0628C35.2683 70.0628 23.1521 57.9466 23.1521 43.0521C23.1485 37.7751 24.6996 32.6139 27.6117 28.2132C32.0115 25.3038 37.1707 23.7546 42.4454 23.7587C57.3399 23.7587 69.4562 35.8749 69.4562 50.7694C69.4603 56.0442 67.911 61.2034 65.0017 65.6032Z" fill="white"/>
</g>
</g>
</g>
</g>
</g>
<defs>
<clipPath id="clip0_247_486">
<rect width="250" height="92.6082" fill="white" transform="translate(0 0.606689)"/>
</clipPath>
<clipPath id="clip1_247_486">
<rect width="250" height="92.6082" fill="white" transform="translate(0 0.606689)"/>
</clipPath>
<clipPath id="clip2_247_486">
<rect width="250" height="92.6082" fill="white" transform="translate(0 0.606689)"/>
</clipPath>
<clipPath id="clip3_247_486">
<rect width="149.852" height="81.4517" fill="white" transform="translate(100.148 6.18506)"/>
</clipPath>
<clipPath id="clip4_247_486">
<rect width="149.852" height="81.4517" fill="white" transform="translate(100.148 6.18506)"/>
</clipPath>
<clipPath id="clip5_247_486">
<rect width="149.852" height="67.7668" fill="white" transform="translate(100.148 6.18506)"/>
</clipPath>
<clipPath id="clip6_247_486">
<rect width="149.852" height="67.7668" fill="white" transform="translate(100.148 6.18506)"/>
</clipPath>
<clipPath id="clip7_247_486">
<rect width="87.9778" height="6.14464" fill="white" transform="translate(100.148 81.4922)"/>
</clipPath>
<clipPath id="clip8_247_486">
<rect width="87.9778" height="6.14464" fill="white" transform="translate(100.148 81.4922)"/>
</clipPath>
<clipPath id="clip9_247_486">
<rect width="92.6082" height="92.6082" fill="white" transform="translate(0 0.606689)"/>
</clipPath>
<clipPath id="clip10_247_486">
<rect width="92.6082" height="92.6082" fill="white" transform="translate(0 0.606689)"/>
</clipPath>
</defs>
</svg>
