<svg width="104" height="40" viewBox="0 0 104 40" fill="none" xmlns="http://www.w3.org/2000/svg">
<g clip-path="url(#clip0_155_91)">
<g clip-path="url(#clip1_155_91)">
<g clip-path="url(#clip2_155_91)">
<g clip-path="url(#clip3_155_91)">
<g clip-path="url(#clip4_155_91)">
<path d="M51.1438 12.4767L50.9165 9.27453L48.7944 9.21099C48.5587 9.21099 47.885 9.22802 46.7734 9.26182C46.6049 9.61762 46.3819 10.1048 46.104 10.7231C45.2873 12.5529 44.4789 14.0778 43.6788 15.2977C43.0303 16.2804 42.542 16.7717 42.2136 16.7717C42.0704 16.7717 41.9526 16.7234 41.8599 16.6268C41.7672 16.5285 41.721 16.3948 41.721 16.2253C41.721 16.0558 41.8112 15.8568 41.9913 15.628C42.1732 15.3993 42.4005 15.152 42.6734 14.8859C42.948 14.6183 43.3057 14.1751 43.747 13.5568C44.1899 12.9385 44.6135 12.2269 45.0177 11.422C45.0852 11.2949 45.4262 10.579 46.0408 9.27453H45.9777C45.843 9.27453 45.7268 9.23387 45.6291 9.15254C45.5331 9.073 45.4851 8.96117 45.4851 8.81708C45.4851 8.67298 45.5356 8.55455 45.6366 8.46128C45.7377 8.36801 45.8708 8.3215 46.0358 8.3215C46.1992 8.3215 46.3566 8.32582 46.5082 8.33421C47.283 6.74151 47.9903 5.64032 48.6302 5.03039C47.1314 5.14907 46.3213 5.20829 46.2 5.20829C46.077 5.20829 45.9633 5.16584 45.859 5.08122C45.7529 4.99659 45.6998 4.88375 45.6998 4.74321C45.6998 4.60419 45.7529 4.48577 45.859 4.38741C45.9633 4.29084 46.0787 4.24255 46.205 4.24255L48.9586 4.3188L51.9522 4.24255C52.1038 4.24255 52.2258 4.28906 52.3185 4.38233C52.4112 4.4756 52.4575 4.59581 52.4575 4.74321C52.4575 4.89239 52.4095 5.00675 52.3135 5.0863C52.2157 5.16762 52.0912 5.20829 51.9396 5.20829H51.6365C51.6365 6.56362 51.6913 7.78781 51.8007 8.88061C51.91 9.97342 52.0197 10.8164 52.1291 11.4093C52.2385 12.0022 52.2933 12.3768 52.2933 12.5326C52.2933 12.6902 52.2453 12.8343 52.1493 12.9646C52.0515 13.0968 51.9227 13.1629 51.7628 13.1629C51.6029 13.1629 51.4639 13.1037 51.3459 12.985C51.228 12.8663 51.1608 12.697 51.1438 12.4767ZM50.6891 5.0558L50.3102 5.0431C49.308 5.17017 48.2809 6.27135 47.2282 8.34692C48.1207 8.36395 48.6876 8.37233 48.9283 8.37233C49.1676 8.37233 49.8092 8.3553 50.8533 8.3215C50.7439 6.86452 50.6891 5.77578 50.6891 5.0558ZM59.872 6.93644C59.872 5.85202 59.4299 5.30994 58.5457 5.30994C58.1837 5.30994 57.8763 5.39457 57.6236 5.56408C57.371 5.73359 57.2447 5.97503 57.2447 6.28838C57.2447 6.48331 57.2977 6.62054 57.4038 6.70009C57.5082 6.78141 57.6572 6.84495 57.851 6.89069C58.0448 6.93822 58.1794 6.97634 58.2552 7.00506C58.331 7.03555 58.401 7.09324 58.4649 7.17787C58.5273 7.2625 58.5583 7.38551 58.5583 7.54638C58.5583 7.70725 58.4952 7.84042 58.3689 7.94538C58.2426 8.05212 58.0867 8.10548 57.9015 8.10548C57.5731 8.10548 57.2657 7.96139 56.9794 7.67345C56.6932 7.38551 56.55 7.04242 56.55 6.64418C56.55 6.1021 56.7842 5.56586 57.2523 5.03547C57.7189 4.50686 58.2762 4.24255 58.9246 4.24255C59.5731 4.24255 60.0683 4.44155 60.4101 4.83978C60.7504 5.23802 60.9204 5.76307 60.9204 6.41545C60.9204 7.43201 60.5356 8.62215 59.7659 9.98612C58.9946 11.3501 58.213 12.3412 57.4215 12.9596C57.2447 13.095 57.0931 13.1629 56.9668 13.1629C56.6889 13.1629 56.4868 12.9977 56.3605 12.6673L54.9458 8.93144C54.7773 8.4994 54.5964 8.04779 54.4027 7.57687C54.2089 7.10748 54.0659 6.75854 53.9732 6.52982C53.8805 6.30109 53.788 6.06804 53.6953 5.83093C53.5438 5.41592 53.468 5.11248 53.468 4.92111C53.468 4.73126 53.5142 4.57116 53.6069 4.44078C53.6996 4.30863 53.83 4.24255 53.9985 4.24255C54.2933 4.24255 54.5121 4.41613 54.6553 4.76354C54.6806 4.8314 54.748 5.03877 54.8574 5.38618C55.8596 8.38504 56.6932 10.5961 57.3584 12.0192C57.9983 11.4517 58.5778 10.6868 59.0964 9.72436C59.6135 8.76371 59.872 7.83432 59.872 6.93644ZM63.9013 9.74469L64.015 12.5021C64.015 12.6716 63.9587 12.8241 63.8457 12.9596C63.7313 13.095 63.5855 13.1629 63.4087 13.1629C63.2319 13.1629 63.0871 13.095 62.9742 12.9596C62.8598 12.8241 62.8024 12.6884 62.8024 12.5529C62.8024 12.4175 62.8219 11.9473 62.8605 11.1425C62.8977 10.3376 62.9161 9.5584 62.9161 8.80437C62.9161 8.05034 62.9078 7.42947 62.8908 6.94152C62.8739 6.45535 62.8555 6.06398 62.8353 5.76739C62.8133 5.47081 62.8024 5.28021 62.8024 5.19558H62.5751C62.4404 5.19558 62.3207 5.1506 62.2163 5.06088C62.1102 4.9727 62.0572 4.85834 62.0572 4.7178C62.0572 4.57878 62.1102 4.46543 62.2163 4.37725C62.3207 4.28754 62.426 4.24255 62.5321 4.24255C62.6364 4.24255 62.7797 4.25526 62.9616 4.28067C63.1417 4.30609 63.3203 4.3188 63.4971 4.3188L65.3665 4.24255C65.8718 4.24255 66.377 4.42045 66.8823 4.77625C67.1432 4.96253 67.3539 5.22938 67.5138 5.57679C67.6738 5.9242 67.7538 6.3265 67.7538 6.78396C67.7538 7.52096 67.5626 8.13344 67.1804 8.62139C66.7964 9.10756 66.3348 9.46513 65.796 9.69386C66.2255 9.90556 66.6574 10.2675 67.092 10.779C67.5247 11.2924 67.9837 11.9092 68.4688 12.6292C68.952 13.3492 69.3244 13.8661 69.5854 14.1794C69.8463 14.4928 70.1411 14.7792 70.4695 15.0384C70.7979 15.2959 71.0296 15.4908 71.1643 15.623C71.2989 15.7533 71.3664 15.9119 71.3664 16.0982C71.3664 16.2845 71.2949 16.4438 71.1516 16.576C71.0084 16.7064 70.8189 16.7717 70.5832 16.7717C70.2631 16.7717 69.912 16.5302 69.5298 16.0474C69.1458 15.5645 68.756 14.98 68.3601 14.2938C67.9643 13.6076 67.55 12.9189 67.1172 12.2276C66.6827 11.5382 66.1833 10.9519 65.6192 10.469C65.0551 9.98612 64.4824 9.74469 63.9013 9.74469ZM64.7476 5.11934L64.015 5.13204C64.015 5.22531 64.0024 5.41999 63.9771 5.71657C63.9266 6.48737 63.9013 7.47013 63.9013 8.66459V9.00768C64.3224 9.12637 64.6195 9.18558 64.7931 9.18558C64.9649 9.18558 65.1265 9.17033 65.2781 9.13984C65.4297 9.11112 65.6022 9.05165 65.796 8.96194C65.9898 8.87375 66.1623 8.76193 66.3139 8.62647C66.4655 8.49102 66.5943 8.30448 66.7004 8.06736C66.8047 7.83025 66.857 7.55908 66.857 7.25411C66.857 6.52549 66.6532 5.98773 66.2457 5.64032C65.8364 5.29292 65.337 5.11934 64.7476 5.11934Z" fill="#1C4B82"/>
<path d="M47.1145 23.0362L47.2282 25.7936C47.2282 25.9632 47.1718 26.1156 47.0589 26.2511C46.9445 26.3866 46.7987 26.4544 46.6219 26.4544C46.445 26.4544 46.3003 26.3866 46.1874 26.2511C46.0729 26.1156 46.0156 25.9799 46.0156 25.8445C46.0156 25.709 46.035 25.2389 46.0737 24.434C46.1108 23.6291 46.1293 22.8499 46.1293 22.0959C46.1293 21.3419 46.1209 20.721 46.104 20.2331C46.0871 19.7469 46.0686 19.3555 46.0484 19.0589C46.0264 18.7623 46.0156 18.5717 46.0156 18.4871H45.7882C45.6536 18.4871 45.5338 18.4421 45.4295 18.3524C45.3234 18.2642 45.2703 18.1499 45.2703 18.0093C45.2703 17.8703 45.3234 17.757 45.4295 17.6688C45.5338 17.5791 45.6392 17.5341 45.7453 17.5341C45.8496 17.5341 45.9928 17.5468 46.1747 17.5722C46.3549 17.5976 46.5335 17.6103 46.7103 17.6103L48.5797 17.5341C49.085 17.5341 49.5902 17.712 50.0954 18.0678C50.3564 18.2541 50.5671 18.5209 50.727 18.8683C50.8869 19.2157 50.967 19.618 50.967 20.0755C50.967 20.8125 50.7758 21.425 50.3935 21.9129C50.0096 22.3991 49.548 22.7567 49.0092 22.9854C49.4386 23.1971 49.8706 23.559 50.3051 24.0706C50.7379 24.5839 51.1969 25.2007 51.6819 25.9207C52.1652 26.6407 52.5376 27.1576 52.7985 27.471C53.0595 27.7843 53.3543 28.0707 53.6827 28.33C54.0111 28.5874 54.2428 28.7823 54.3774 28.9145C54.5121 29.0449 54.5795 29.2034 54.5795 29.3897C54.5795 29.576 54.508 29.7354 54.3648 29.8675C54.2215 29.9979 54.0321 30.0632 53.7964 30.0632C53.4763 30.0632 53.1252 29.8218 52.7429 29.3389C52.359 28.856 51.9692 28.2715 51.5733 27.5853C51.1774 26.8992 50.7631 26.2104 50.3304 25.5192C49.8959 24.8297 49.3964 24.2434 48.8323 23.7605C48.2682 23.2777 47.6955 23.0362 47.1145 23.0362ZM47.9608 18.4109L47.2282 18.4236C47.2282 18.5168 47.2155 18.7115 47.1903 19.0081C47.1398 19.7789 47.1145 20.7617 47.1145 21.9561V22.2992C47.5356 22.4179 47.8327 22.4771 48.0063 22.4771C48.178 22.4771 48.3397 22.4619 48.4913 22.4314C48.6429 22.4027 48.8154 22.3432 49.0092 22.2535C49.2029 22.1653 49.3755 22.0535 49.527 21.918C49.6786 21.7825 49.8075 21.596 49.9136 21.3589C50.0179 21.1218 50.0702 20.8506 50.0702 20.5456C50.0702 19.817 49.8663 19.2793 49.4588 18.9319C49.0496 18.5844 48.5501 18.4109 47.9608 18.4109ZM54.8448 23.8495L53.3417 23.7224C53.1984 23.7224 53.0847 23.7351 53.0006 23.7605C53.0511 24.2434 53.255 24.6457 53.612 24.9677C53.9707 25.2897 54.3943 25.4506 54.8827 25.4506C55.3543 25.4506 55.7795 25.277 56.1584 24.9296C56.2931 24.8109 56.3941 24.7517 56.4616 24.7517C56.529 24.7517 56.5879 24.7771 56.6384 24.8279C56.6889 24.8787 56.7142 24.9339 56.7142 24.9931C56.7142 25.2389 56.4767 25.5438 56.0018 25.908C55.5251 26.2722 54.9862 26.4544 54.385 26.4544C53.782 26.4544 53.2601 26.2087 52.8187 25.7174C52.3759 25.2261 52.1543 24.6162 52.1543 23.8876C52.1543 22.9557 52.5037 22.1721 53.2027 21.5368C53.9017 20.9014 54.6722 20.5838 55.5142 20.5838C55.8679 20.5838 56.1566 20.6448 56.3807 20.7668C56.603 20.8905 56.7142 21.0471 56.7142 21.2369C56.7142 21.4283 56.6579 21.5833 56.5449 21.702C56.4305 21.8207 56.3183 21.8799 56.2089 21.8799C56.0996 21.8799 55.9126 21.8291 55.6481 21.7274C55.3821 21.6257 55.127 21.5749 54.8827 21.5749C54.4279 21.5749 54.0346 21.7122 53.7029 21.9866C53.3694 22.2629 53.1479 22.6042 53.0385 23.0108L54.7816 22.9092C55.1689 22.9092 55.3626 23.0616 55.3626 23.3666C55.3626 23.6886 55.1901 23.8495 54.8448 23.8495ZM58.672 26.4544C58.3605 26.4544 58.1079 26.3909 57.9141 26.2638C57.7204 26.1367 57.6236 25.9774 57.6236 25.786C57.6236 25.5962 57.68 25.4437 57.7929 25.3286C57.9073 25.215 58.021 25.1583 58.1339 25.1583C58.2484 25.1583 58.4363 25.2091 58.6973 25.3108C58.9582 25.4124 59.2303 25.4633 59.5133 25.4633C59.7944 25.4633 60.0784 25.3888 60.3646 25.2396C60.6508 25.0922 60.7941 24.91 60.7941 24.6932C60.7941 24.478 60.6862 24.3112 60.4707 24.1926C60.2567 24.0739 59.9983 23.9783 59.6951 23.9054C59.392 23.8342 59.0888 23.7521 58.7857 23.6589C58.4825 23.5656 58.2231 23.4233 58.0076 23.2319C57.7936 23.0421 57.6868 22.8075 57.6868 22.5279C57.6868 22.0705 57.9773 21.6316 58.5583 21.2115C59.1394 20.7929 59.7793 20.5838 60.4783 20.5838C60.815 20.5838 61.0745 20.6448 61.2564 20.7668C61.4365 20.8905 61.5267 21.0496 61.5267 21.2445C61.5267 21.4395 61.4693 21.5935 61.3549 21.7071C61.242 21.8222 61.1293 21.8799 61.0164 21.8799C60.9019 21.8799 60.714 21.8291 60.453 21.7274C60.1921 21.6257 59.9207 21.5749 59.6396 21.5749C59.3566 21.5749 59.1116 21.6341 58.9044 21.7528C58.699 21.8715 58.5962 22.0153 58.5962 22.1849C58.5962 22.3544 58.7579 22.5025 59.0813 22.6296C59.4064 22.7567 59.7626 22.8583 60.1499 22.9346C60.5371 23.0108 60.8933 23.1608 61.2185 23.3844C61.5418 23.6098 61.7035 23.9003 61.7035 24.2561C61.7035 24.8068 61.3834 25.3108 60.7435 25.7682C60.1036 26.2257 59.413 26.4544 58.672 26.4544ZM65.3665 23.8495L63.8634 23.7224C63.7202 23.7224 63.6065 23.7351 63.5224 23.7605C63.5729 24.2434 63.7775 24.6457 64.1363 24.9677C64.4932 25.2897 64.9161 25.4506 65.4044 25.4506C65.8761 25.4506 66.3012 25.277 66.6802 24.9296C66.8148 24.8109 66.9159 24.7517 66.9833 24.7517C67.0508 24.7517 67.1096 24.7771 67.1602 24.8279C67.2107 24.8787 67.236 24.9339 67.236 24.9931C67.236 25.2389 66.9985 25.5438 66.5236 25.908C66.0469 26.2722 65.508 26.4544 64.9068 26.4544C64.3038 26.4544 63.7818 26.2087 63.3405 25.7174C62.8977 25.2261 62.6761 24.6162 62.6761 23.8876C62.6761 22.9557 63.0255 22.1721 63.7245 21.5368C64.4235 20.9014 65.194 20.5838 66.036 20.5838C66.3897 20.5838 66.6784 20.6448 66.9025 20.7668C67.1248 20.8905 67.236 21.0471 67.236 21.2369C67.236 21.4283 67.1796 21.5833 67.0667 21.702C66.9523 21.8207 66.8401 21.8799 66.7307 21.8799C66.6213 21.8799 66.4344 21.8291 66.1699 21.7274C65.9039 21.6257 65.6487 21.5749 65.4044 21.5749C64.9497 21.5749 64.5564 21.7122 64.2247 21.9866C63.8912 22.2629 63.6697 22.6042 63.5603 23.0108L65.3034 22.9092C65.6907 22.9092 65.8844 23.0616 65.8844 23.3666C65.8844 23.6886 65.7119 23.8495 65.3665 23.8495ZM69.4212 23.392L69.5222 25.692C69.5222 25.9207 69.4659 26.1045 69.3529 26.2435C69.2385 26.384 69.1011 26.4544 68.9412 26.4544C68.7813 26.4544 68.6506 26.3883 68.5496 26.2562C68.4485 26.1258 68.398 25.9461 68.398 25.7174C68.398 25.4887 68.419 25.1626 68.4612 24.739C68.5453 23.8919 68.5875 23.176 68.5875 22.5915C68.5875 22.3373 68.5099 22.0934 68.3551 21.8596C68.1985 21.6275 68.1201 21.4181 68.1201 21.2318C68.1201 21.0455 68.1833 20.8905 68.3096 20.7668C68.4359 20.6448 68.5792 20.5838 68.7391 20.5838C69.1602 20.5838 69.3706 20.9185 69.3706 21.5876V22.0832C69.6232 21.6257 69.9264 21.2616 70.2801 20.9904C70.6337 20.7192 70.9579 20.5838 71.2527 20.5838C71.5475 20.5838 71.7731 20.6575 71.9297 20.8049C72.0846 20.9541 72.1621 21.1513 72.1621 21.397C72.1621 21.6428 72.1033 21.8476 71.9853 22.012C71.8673 22.178 71.741 22.2611 71.6063 22.2611C71.4717 22.2611 71.3689 22.2248 71.2981 22.1518C71.2256 22.0807 71.1726 22.0044 71.139 21.9231C71.1054 21.8435 71.0422 21.7673 70.9495 21.6944C70.8568 21.6232 70.7391 21.5876 70.5958 21.5876C70.3516 21.5876 70.1075 21.7485 69.8632 22.0705C69.619 22.3925 69.4717 22.8329 69.4212 23.392ZM72.9579 21.9434C72.7641 21.596 72.6674 21.3353 72.6674 21.1607C72.6674 20.9879 72.7179 20.8481 72.8189 20.7413C72.92 20.6364 73.0673 20.5838 73.261 20.5838C73.4548 20.5838 73.6357 20.7421 73.8042 21.059C73.9727 21.3774 74.2589 22.0382 74.6631 23.0413C75.0673 24.0459 75.3578 24.8025 75.5346 25.3108L75.6357 25.5903C75.9305 25.404 76.2571 24.9702 76.6159 24.2891C76.9728 23.6063 77.1514 22.9897 77.1514 22.439C77.1514 22.2527 77.1009 22.0255 76.9999 21.7579C76.8988 21.4918 76.8483 21.287 76.8483 21.1429C76.8483 20.9988 76.9056 20.8692 77.0201 20.754C77.133 20.6404 77.2861 20.5838 77.4798 20.5838C77.6736 20.5838 77.8317 20.6745 77.9548 20.8557C78.076 21.0387 78.1367 21.3487 78.1367 21.7859C78.1367 22.2212 77.9851 22.8118 77.6819 23.5572C77.3788 24.3026 77.0042 24.9593 76.5578 25.5268C76.0694 26.1451 75.6357 26.4544 75.2568 26.4544C74.9872 26.4544 74.7684 26.23 74.5999 25.7809C74.0189 24.1628 73.4715 22.8837 72.9579 21.9434ZM83.2144 24.6754C83.2733 24.8279 83.3981 25.033 83.5883 25.2904C83.777 25.5497 83.8712 25.7598 83.8712 25.9207C83.8712 26.0816 83.829 26.2104 83.7449 26.307C83.6608 26.4054 83.5471 26.4544 83.4039 26.4544C83.0585 26.4544 82.7513 26.0943 82.4818 25.3743L82.3807 25.0948C81.9513 26.0013 81.3071 26.4544 80.4482 26.4544C80.0187 26.4544 79.6633 26.3164 79.3821 26.0402C79.0992 25.7657 78.9577 25.4208 78.9577 25.0058C78.9577 24.3621 79.1767 23.807 79.6145 23.3412C80.0523 22.8754 80.625 22.6253 81.3323 22.5915C81.1639 22.2949 80.9769 22.0723 80.7715 21.9231C80.5644 21.7757 80.3767 21.6893 80.2082 21.6639C80.0397 21.6385 79.8815 21.6232 79.7332 21.6181C79.5867 21.6148 79.4713 21.5833 79.3872 21.5241C79.303 21.4649 79.2608 21.348 79.2608 21.1734C79.2608 21.0006 79.3308 20.859 79.4705 20.749C79.6087 20.6389 79.7744 20.5838 79.9682 20.5838C80.5156 20.5838 81.0545 20.859 81.585 21.4097C82.1155 21.9604 82.5785 22.8245 82.9744 24.002L83.2144 24.6754ZM81.0166 23.2649C80.7134 23.2649 80.4424 23.3666 80.2031 23.5699C79.9624 23.7732 79.8419 24.0358 79.8419 24.3578C79.8419 24.6797 79.9497 24.9481 80.1652 25.1634C80.3792 25.3802 80.6376 25.4887 80.9408 25.4887C81.2439 25.4887 81.5049 25.3802 81.7239 25.1634C81.9429 24.9481 82.0523 24.6925 82.0523 24.3959C82.0523 24.1842 82.0144 23.9867 81.9386 23.8037C81.8629 23.6225 81.8166 23.5107 81.7997 23.4683C81.5807 23.3328 81.3197 23.2649 81.0166 23.2649ZM87.5722 21.5241C87.53 21.5241 87.0037 21.4903 85.9933 21.4224C85.9933 21.5325 85.9763 21.9518 85.9427 22.6804C85.9091 23.409 85.8922 23.9486 85.8922 24.2993C85.8922 24.6518 85.9705 24.9441 86.1271 25.1761C86.282 25.4099 86.3596 25.6201 86.3596 25.8064C86.3596 25.9926 86.2964 26.1469 86.1701 26.2689C86.0438 26.3927 85.9005 26.4544 85.7406 26.4544C85.3195 26.4544 85.1091 26.1197 85.1091 25.4506L85.0585 22.871C85.0585 22.3457 85.0459 21.8756 85.0207 21.4606H84.7175C84.5995 21.4606 84.5028 21.4242 84.427 21.3513C84.3512 21.2801 84.3133 21.181 84.3133 21.0539C84.3133 20.9269 84.3512 20.827 84.427 20.754C84.5028 20.6829 84.5995 20.6473 84.7175 20.6473H84.9828C84.9658 20.2069 84.9575 19.8696 84.9575 19.6358C84.9575 19.4038 85.0148 19.2173 85.1293 19.0767C85.2422 18.9377 85.3786 18.8683 85.5385 18.8683C85.6984 18.8683 85.8291 18.9336 85.9301 19.064C86.0311 19.1962 86.0817 19.4104 86.0817 19.707C86.0817 20.0036 86.069 20.3296 86.0438 20.6854L87.5722 20.5838C87.9006 20.5838 88.0648 20.7406 88.0648 21.0539C88.0648 21.3673 87.9006 21.5241 87.5722 21.5241ZM89.2774 25.4506C89.2774 24.3832 89.2564 23.4472 89.2142 22.6423C89.172 21.8374 89.151 21.3632 89.151 21.2191C89.151 21.075 89.2084 20.9327 89.3228 20.7922C89.4358 20.6532 89.5722 20.5838 89.7321 20.5838C89.892 20.5838 90.0226 20.6491 90.1237 20.7795C90.2247 20.9116 90.2752 21.1022 90.2752 21.3513C90.2752 21.6021 90.2457 22.0214 90.1868 22.6093C90.1279 23.1989 90.0984 23.8114 90.0984 24.4467C90.0984 24.7008 90.1514 24.9441 90.2575 25.1761C90.3619 25.4099 90.4142 25.6216 90.4142 25.8114C90.4142 26.0028 90.3619 26.1578 90.2575 26.2765C90.1514 26.3952 90.0082 26.4544 89.8281 26.4544C89.6462 26.4544 89.509 26.3528 89.4163 26.1494C89.3236 25.9461 89.2774 25.7131 89.2774 25.4506ZM89.6816 19.1479C89.4964 19.1479 89.3489 19.0971 89.2395 18.9954C89.1301 18.8937 89.0753 18.7456 89.0753 18.5506C89.0753 18.3557 89.1427 18.189 89.2774 18.05C89.412 17.9095 89.5722 17.8391 89.7573 17.8391C89.9425 17.8391 90.0926 17.8917 90.207 17.9966C90.3199 18.1034 90.3763 18.2541 90.3763 18.449C90.3763 18.6439 90.3063 18.8091 90.1666 18.9446C90.0284 19.08 89.8667 19.1479 89.6816 19.1479ZM93.0743 22.1467C92.6986 22.5196 92.5109 22.977 92.5109 23.5191C92.5109 24.0612 92.6986 24.5204 93.0743 24.8965C93.4482 25.2744 93.9029 25.4633 94.4385 25.4633C94.9723 25.4633 95.4204 25.2744 95.7824 24.8965C96.1444 24.5204 96.3256 24.0612 96.3256 23.5191C96.3256 22.977 96.1444 22.5196 95.7824 22.1467C95.4204 21.7739 94.9723 21.5876 94.4385 21.5876C93.9029 21.5876 93.4482 21.7739 93.0743 22.1467ZM93.572 26.4544C93.0331 26.4544 92.5824 26.2427 92.2204 25.8191C91.8584 25.3954 91.6773 24.8643 91.6773 24.2256C91.6773 23.5852 91.8751 22.9658 92.271 22.3678C92.6668 21.7714 93.1299 21.3251 93.6604 21.0285C94.1909 20.7319 94.7257 20.5838 95.2645 20.5838C95.8034 20.5838 96.2541 20.7955 96.6161 21.2191C96.9781 21.6428 97.1592 22.1739 97.1592 22.8126C97.1592 23.453 96.9614 24.0713 96.5656 24.6678C96.1697 25.2658 95.7066 25.7131 95.1761 26.0097C94.6456 26.3062 94.1108 26.4544 93.572 26.4544ZM99.2813 22.744L99.357 25.8445C99.357 26.0224 99.3065 26.168 99.2055 26.2816C99.1044 26.3967 98.9738 26.4544 98.8139 26.4544C98.654 26.4544 98.5176 26.3967 98.4046 26.2816C98.2902 26.168 98.2329 26.0224 98.2329 25.8445L98.3213 23.3285C98.3213 23.3285 98.2917 22.6212 98.2329 21.2064C98.2329 21.0285 98.2902 20.8804 98.4046 20.7617C98.5176 20.643 98.654 20.5838 98.8139 20.5838C98.9738 20.5838 99.1044 20.6404 99.2055 20.754C99.3065 20.8692 99.357 21.0115 99.357 21.181C99.357 21.3505 99.3527 21.4776 99.3444 21.5622C99.8161 20.9098 100.359 20.5838 100.974 20.5838C101.858 20.5838 102.426 21.181 102.679 22.3755L103.159 24.5611C103.21 24.756 103.313 24.9659 103.47 25.1913C103.625 25.415 103.702 25.6157 103.702 25.7936C103.702 26.2341 103.492 26.4544 103.071 26.4544C102.649 26.4544 102.376 26.1197 102.25 25.4506L101.77 22.7948C101.61 21.9477 101.176 21.5241 100.469 21.5241C100.107 21.5241 99.8244 21.6468 99.6223 21.8926C99.4202 22.1383 99.3065 22.422 99.2813 22.744Z" fill="#1C4B82"/>
</g>
</g>
<g clip-path="url(#clip5_155_91)">
<g clip-path="url(#clip6_155_91)">
<path d="M42.6342 34.6475H42.9613L42.5033 35.7309V36.3967H42.1812V35.7335L41.7232 34.6475H42.063L42.3473 35.4702L42.6342 34.6475ZM43.5652 35.0221C43.733 35.0221 43.8633 35.0812 43.9563 35.1993C44.0495 35.3175 44.0962 35.493 44.0962 35.7259C44.0962 35.9487 44.0492 36.1225 43.9553 36.2474C43.8613 36.3723 43.7313 36.4347 43.5652 36.4347C43.3991 36.4347 43.2691 36.3734 43.1752 36.2509C43.0812 36.1287 43.0343 35.9537 43.0343 35.7259C43.0343 35.4997 43.0812 35.3259 43.1752 35.2044C43.2691 35.0829 43.3991 35.0221 43.5652 35.0221ZM43.5652 35.2576C43.4931 35.2576 43.4402 35.2933 43.4067 35.3649C43.3731 35.4368 43.3564 35.5571 43.3564 35.7259C43.3564 35.8963 43.3731 36.0173 43.4067 36.0889C43.4402 36.1608 43.4931 36.1967 43.5652 36.1967C43.6374 36.1967 43.6902 36.1608 43.7238 36.0889C43.7573 36.0173 43.7741 35.8963 43.7741 35.7259C43.7741 35.5554 43.7573 35.4348 43.7238 35.3639C43.6902 35.293 43.6374 35.2576 43.5652 35.2576ZM45.2381 35.0576V36.3967H44.9694L44.9543 36.2271C44.9123 36.2963 44.8652 36.3481 44.8128 36.3825C44.7608 36.4173 44.7006 36.4347 44.6322 36.4347C44.5345 36.4347 44.4577 36.4001 44.4017 36.3309C44.3456 36.2617 44.3176 36.1714 44.3176 36.06V35.0576H44.6271V36.0423C44.6271 36.147 44.6624 36.1993 44.7328 36.1993C44.7727 36.1993 44.8088 36.1836 44.841 36.1522C44.8726 36.1211 44.9019 36.0769 44.9291 36.0195V35.0576H45.2381ZM46.1113 35.0247C46.1499 35.0247 46.1843 35.0306 46.2145 35.0424L46.1641 35.3411C46.1306 35.3327 46.0995 35.3284 46.071 35.3284C46.0073 35.3284 45.9569 35.3563 45.92 35.412C45.8831 35.4677 45.8546 35.5504 45.8345 35.6601V36.3967H45.525V35.0576H45.7942L45.8169 35.2905C45.8789 35.1133 45.9771 35.0247 46.1113 35.0247ZM47.611 34.6475H47.9256L47.523 36.3967H47.1229L46.7051 34.6475H47.0298L47.3267 36.1132L47.611 34.6475ZM48.0635 35.0576H48.373V36.3967H48.0635V35.0576ZM48.217 34.3893C48.2727 34.3893 48.3176 34.407 48.3519 34.4424C48.3864 34.4779 48.4037 34.5234 48.4037 34.5791C48.4037 34.6331 48.3864 34.6779 48.3519 34.7133C48.3176 34.7487 48.2727 34.7665 48.217 34.7665C48.162 34.7665 48.1172 34.7487 48.0826 34.7133C48.0484 34.6779 48.0313 34.6331 48.0313 34.5791C48.0313 34.5234 48.0484 34.4779 48.0826 34.4424C48.1172 34.407 48.162 34.3893 48.217 34.3893ZM49.0298 35.0221C49.1875 35.0221 49.3208 35.0745 49.4299 35.1791L49.3116 35.3487C49.2646 35.3149 49.2202 35.2896 49.1782 35.2728C49.1363 35.2559 49.0935 35.2474 49.0499 35.2474C49.0012 35.2474 48.9632 35.2604 48.9356 35.2864C48.9078 35.3127 48.8939 35.3487 48.8939 35.3943C48.8939 35.4398 48.9095 35.4765 48.9407 35.5041C48.9715 35.5321 49.034 35.5647 49.1279 35.6018C49.2437 35.6474 49.3292 35.7014 49.3846 35.7639C49.4399 35.8263 49.4676 35.9098 49.4676 36.0145C49.4676 36.1444 49.4223 36.2469 49.3317 36.3218C49.2411 36.3971 49.1262 36.4347 48.987 36.4347C48.8964 36.4347 48.813 36.4182 48.7369 36.3851C48.6604 36.3523 48.5936 36.3064 48.5366 36.2474L48.6875 36.0803C48.7815 36.163 48.8771 36.2043 48.9744 36.2043C49.0298 36.2043 49.0734 36.1897 49.1053 36.1603C49.1371 36.1306 49.1531 36.0896 49.1531 36.0373C49.1531 35.9984 49.1464 35.9669 49.1329 35.9426C49.1195 35.9179 49.096 35.895 49.0625 35.8737C49.0289 35.8528 48.9786 35.8297 48.9115 35.8044C48.7957 35.7588 48.7132 35.7056 48.6639 35.6449C48.6142 35.5841 48.5894 35.5065 48.5894 35.412C48.5894 35.2989 48.6293 35.2056 48.7092 35.132C48.7887 35.0588 48.8956 35.0221 49.0298 35.0221ZM49.6614 35.0576H49.9709V36.3967H49.6614V35.0576ZM49.8149 34.3893C49.8702 34.3893 49.9152 34.407 49.9497 34.4424C49.984 34.4779 50.0011 34.5234 50.0011 34.5791C50.0011 34.6331 49.984 34.6779 49.9497 34.7133C49.9152 34.7487 49.8702 34.7665 49.8149 34.7665C49.7595 34.7665 49.7147 34.7487 49.6805 34.7133C49.6459 34.6779 49.6287 34.6331 49.6287 34.5791C49.6287 34.5234 49.6459 34.4779 49.6805 34.4424C49.7147 34.407 49.7595 34.3893 49.8149 34.3893ZM50.7308 35.0221C50.8986 35.0221 51.0289 35.0812 51.1219 35.1993C51.2151 35.3175 51.2618 35.493 51.2618 35.7259C51.2618 35.9487 51.2148 36.1225 51.1209 36.2474C51.0269 36.3723 50.8969 36.4347 50.7308 36.4347C50.5647 36.4347 50.4347 36.3734 50.3408 36.2509C50.2468 36.1287 50.1999 35.9537 50.1999 35.7259C50.1999 35.4997 50.2468 35.3259 50.3408 35.2044C50.4347 35.0829 50.5647 35.0221 50.7308 35.0221ZM50.7308 35.2576C50.6587 35.2576 50.6058 35.2933 50.5723 35.3649C50.5387 35.4368 50.522 35.5571 50.522 35.7259C50.522 35.8963 50.5387 36.0173 50.5723 36.0889C50.6058 36.1608 50.6587 36.1967 50.7308 36.1967C50.803 36.1967 50.8558 36.1608 50.8894 36.0889C50.9229 36.0173 50.9397 35.8963 50.9397 35.7259C50.9397 35.5554 50.9229 35.4348 50.8894 35.3639C50.8558 35.293 50.803 35.2576 50.7308 35.2576ZM52.1123 35.0221C52.2079 35.0221 52.2834 35.0567 52.3388 35.1259C52.3941 35.1951 52.4218 35.2879 52.4218 35.4044V36.3967H52.1123V35.4398C52.1123 35.3757 52.1034 35.3296 52.0856 35.3016C52.0682 35.2739 52.0427 35.2601 52.0091 35.2601C51.9387 35.2601 51.8691 35.3268 51.8003 35.4601V36.3967H51.4908V35.0576H51.76L51.7827 35.2322C51.828 35.1614 51.8761 35.1085 51.9271 35.0738C51.9784 35.0393 52.0402 35.0221 52.1123 35.0221ZM52.8214 36.0398C52.8751 36.0398 52.9192 36.0578 52.9538 36.094C52.988 36.1304 53.0051 36.1765 53.0051 36.2322C53.0051 36.2558 53.0014 36.2806 52.994 36.3066C52.9863 36.3329 52.9766 36.3616 52.9649 36.3927C52.9531 36.4241 52.9456 36.4457 52.9422 36.4575L52.8088 36.8296H52.6352L52.7258 36.4018C52.6654 36.3579 52.6352 36.3022 52.6352 36.2347C52.6352 36.179 52.6528 36.1326 52.6881 36.0955C52.7233 36.0584 52.7677 36.0398 52.8214 36.0398ZM54.3061 34.612C54.5107 34.612 54.6684 34.6871 54.7792 34.8373C54.8899 34.9875 54.9452 35.2154 54.9452 35.5208C54.9452 35.8229 54.8899 36.0508 54.7792 36.2043C54.6684 36.3579 54.5107 36.4347 54.3061 36.4347C54.1031 36.4347 53.9457 36.3588 53.834 36.2069C53.7226 36.055 53.6669 35.8271 53.6669 35.5234C53.6669 35.223 53.7226 34.996 53.834 34.8424C53.9457 34.6888 54.1031 34.612 54.3061 34.612ZM54.3061 34.8551C54.2037 34.8551 54.1277 34.9065 54.0781 35.0095C54.0288 35.1124 54.0041 35.2837 54.0041 35.5234C54.0041 35.7647 54.0293 35.9355 54.0796 36.0357C54.1299 36.1363 54.2054 36.1866 54.3061 36.1866C54.4101 36.1866 54.4868 36.1368 54.5361 36.0373C54.5857 35.9377 54.6106 35.7655 54.6106 35.5208C54.6106 35.2812 54.5854 35.1102 54.5351 35.008C54.4847 34.906 54.4084 34.8551 54.3061 34.8551ZM56.0902 35.0576V36.3967H55.8209L55.8058 36.2271C55.7639 36.2963 55.7169 36.3481 55.6649 36.3825C55.6129 36.4173 55.5525 36.4347 55.4837 36.4347C55.3864 36.4347 55.3096 36.4001 55.2532 36.3309C55.1972 36.2617 55.1692 36.1714 55.1692 36.06V35.0576H55.4787V36.0423C55.4787 36.147 55.5139 36.1993 55.5844 36.1993C55.6247 36.1993 55.6607 36.1836 55.6926 36.1522C55.7245 36.1211 55.7538 36.0769 55.7807 36.0195V35.0576H56.0902ZM56.9629 35.0247C57.0014 35.0247 57.0358 35.0306 57.066 35.0424L57.0157 35.3411C56.9821 35.3327 56.9511 35.3284 56.9226 35.3284C56.8588 35.3284 56.8085 35.3563 56.7716 35.412C56.7347 35.4677 56.7062 35.5504 56.6861 35.6601V36.3967H56.3765V35.0576H56.6458L56.6684 35.2905C56.7305 35.1133 56.8286 35.0247 56.9629 35.0247ZM58.8375 36.3967H58.4928L58.1858 35.6904H58.1556H58.0323V36.3967H57.7127V34.6475H58.1229C58.5423 34.6475 58.752 34.8188 58.752 35.1614C58.752 35.2677 58.7285 35.3619 58.6815 35.4439C58.6346 35.5256 58.5641 35.5875 58.4702 35.6297L58.8375 36.3967ZM58.138 35.4575C58.237 35.4575 58.3086 35.4339 58.3529 35.3867C58.3975 35.3394 58.4198 35.2643 58.4198 35.1614C58.4198 35.0652 58.3967 34.9946 58.3504 34.9497C58.3044 34.9052 58.2286 34.8829 58.1229 34.8829H58.0323V35.4575H58.138ZM59.4641 35.0221C59.6319 35.0221 59.7622 35.0812 59.8552 35.1993C59.9484 35.3175 59.9951 35.493 59.9951 35.7259C59.9951 35.9487 59.9481 36.1225 59.8542 36.2474C59.7602 36.3723 59.6302 36.4347 59.4641 36.4347C59.298 36.4347 59.168 36.3734 59.0741 36.2509C58.9801 36.1287 58.9332 35.9537 58.9332 35.7259C58.9332 35.4997 58.9801 35.3259 59.0741 35.2044C59.168 35.0829 59.298 35.0221 59.4641 35.0221ZM59.4641 35.2576C59.392 35.2576 59.3391 35.2933 59.3056 35.3649C59.272 35.4368 59.2553 35.5571 59.2553 35.7259C59.2553 35.8963 59.272 36.0173 59.3056 36.0889C59.3391 36.1608 59.392 36.1967 59.4641 36.1967C59.5363 36.1967 59.5891 36.1608 59.6227 36.0889C59.6562 36.0173 59.673 35.8963 59.673 35.7259C59.673 35.5554 59.6562 35.4348 59.6227 35.3639C59.5891 35.293 59.5363 35.2576 59.4641 35.2576ZM60.6966 35.0221C60.8644 35.0221 60.9949 35.0812 61.0882 35.1993C61.1811 35.3175 61.2276 35.493 61.2276 35.7259C61.2276 35.9487 61.1806 36.1225 61.0867 36.2474C60.9927 36.3723 60.8627 36.4347 60.6966 36.4347C60.5306 36.4347 60.4005 36.3734 60.3066 36.2509C60.2127 36.1287 60.1657 35.9537 60.1657 35.7259C60.1657 35.4997 60.2127 35.3259 60.3066 35.2044C60.4005 35.0829 60.5306 35.0221 60.6966 35.0221ZM60.6966 35.2576C60.6245 35.2576 60.5717 35.2933 60.5381 35.3649C60.5046 35.4368 60.4878 35.5571 60.4878 35.7259C60.4878 35.8963 60.5046 36.0173 60.5381 36.0889C60.5717 36.1608 60.6245 36.1967 60.6966 36.1967C60.7688 36.1967 60.8216 36.1608 60.8552 36.0889C60.8887 36.0173 60.9055 35.8963 60.9055 35.7259C60.9055 35.5554 60.8887 35.4348 60.8552 35.3639C60.8216 35.293 60.7688 35.2576 60.6966 35.2576ZM62.6468 35.0221C62.7357 35.0221 62.807 35.0567 62.8607 35.1259C62.9144 35.1951 62.9412 35.2879 62.9412 35.4044V36.3967H62.6368V35.4373C62.6368 35.3732 62.6284 35.3271 62.6116 35.2991C62.5948 35.2714 62.5705 35.2576 62.5386 35.2576C62.4732 35.2576 62.4103 35.32 62.3499 35.4449V36.3967H62.0479V35.4373C62.0479 35.3175 62.0161 35.2576 61.9523 35.2576C61.8835 35.2576 61.8198 35.32 61.7611 35.4449V36.3967H61.4566V35.0576H61.7258L61.746 35.2297C61.8332 35.0913 61.938 35.0221 62.0605 35.0221C62.1226 35.0221 62.1763 35.0415 62.2216 35.0804C62.2668 35.1192 62.3012 35.174 62.3247 35.2449C62.4136 35.0964 62.521 35.0221 62.6468 35.0221ZM63.3439 36.0398C63.4009 36.0398 63.447 36.0592 63.4823 36.098C63.5175 36.1368 63.5351 36.1832 63.5351 36.2372C63.5351 36.2912 63.5175 36.3377 63.4823 36.3765C63.447 36.4153 63.4009 36.4347 63.3439 36.4347C63.2885 36.4347 63.2427 36.4153 63.2065 36.3765C63.1706 36.3377 63.1526 36.2912 63.1526 36.2372C63.1526 36.1832 63.1706 36.1368 63.2065 36.098C63.2427 36.0592 63.2885 36.0398 63.3439 36.0398ZM63.3439 35.1386C63.4009 35.1386 63.447 35.158 63.4823 35.1968C63.5175 35.2356 63.5351 35.282 63.5351 35.336C63.5351 35.39 63.5175 35.4365 63.4823 35.4753C63.447 35.5141 63.4009 35.5335 63.3439 35.5335C63.2885 35.5335 63.2427 35.5141 63.2065 35.4753C63.1706 35.4365 63.1526 35.39 63.1526 35.336C63.1526 35.282 63.1706 35.2356 63.2065 35.1968C63.2427 35.158 63.2885 35.1386 63.3439 35.1386ZM65.3866 36.3967H65.0419L64.7349 35.6904H64.7047H64.5814V36.3967H64.2618V34.6475H64.672C65.0914 34.6475 65.3011 34.8188 65.3011 35.1614C65.3011 35.2677 65.2776 35.3619 65.2306 35.4439C65.1837 35.5256 65.1132 35.5875 65.0192 35.6297L65.3866 36.3967ZM64.6871 35.4575C64.7861 35.4575 64.8579 35.4339 64.9025 35.3867C64.9468 35.3394 64.9689 35.2643 64.9689 35.1614C64.9689 35.0652 64.9459 34.9946 64.9 34.9497C64.8537 34.9052 64.7777 34.8829 64.672 34.8829H64.5814V35.4575H64.6871ZM66.4888 35.6955C66.4888 35.7107 66.4863 35.7537 66.4813 35.8246H65.7943C65.801 35.963 65.825 36.0595 65.8663 36.1142C65.9072 36.1692 65.9654 36.1967 66.0409 36.1967C66.0929 36.1967 66.1399 36.1878 66.1818 36.1699C66.2237 36.1524 66.269 36.1242 66.3177 36.0854L66.446 36.2626C66.3286 36.3773 66.1877 36.4347 66.0233 36.4347C65.8488 36.4347 65.7151 36.3739 65.6222 36.2524C65.5289 36.1309 65.4823 35.9596 65.4823 35.7385C65.4823 35.5175 65.5267 35.3428 65.6156 35.2145C65.7045 35.0863 65.8304 35.0221 65.9931 35.0221C66.1491 35.0221 66.2707 35.079 66.358 35.1928C66.4452 35.3068 66.4888 35.4744 66.4888 35.6955ZM66.1868 35.6221V35.6044C66.1868 35.4778 66.1717 35.3853 66.1415 35.3269C66.1114 35.2689 66.0627 35.2398 65.9956 35.2398C65.9335 35.2398 65.8862 35.268 65.8537 35.3244C65.8208 35.3811 65.801 35.4803 65.7943 35.6221H66.1868ZM67.0751 35.0221C67.2328 35.0221 67.3662 35.0745 67.4752 35.1791L67.357 35.3487C67.31 35.3149 67.2655 35.2896 67.2236 35.2728C67.1816 35.2559 67.1389 35.2474 67.0953 35.2474C67.0466 35.2474 67.0084 35.2604 66.9805 35.2864C66.953 35.3127 66.9392 35.3487 66.9392 35.3943C66.9392 35.4398 66.9547 35.4765 66.9855 35.5041C67.0167 35.5321 67.0793 35.5647 67.1733 35.6018C67.289 35.6474 67.3746 35.7014 67.4299 35.7639C67.4853 35.8263 67.513 35.9098 67.513 36.0145C67.513 36.1444 67.4677 36.2469 67.3771 36.3218C67.2865 36.3971 67.1716 36.4347 67.0323 36.4347C66.9418 36.4347 66.8582 36.4182 66.7817 36.3851C66.7056 36.3523 66.6389 36.3064 66.5819 36.2474L66.7329 36.0803C66.8268 36.163 66.9225 36.2043 67.0198 36.2043C67.0751 36.2043 67.1187 36.1897 67.1506 36.1603C67.1825 36.1306 67.1984 36.0896 67.1984 36.0373C67.1984 35.9984 67.1917 35.9669 67.1783 35.9426C67.1649 35.9179 67.1414 35.895 67.1078 35.8737C67.0743 35.8528 67.024 35.8297 66.9569 35.8044C66.8411 35.7588 66.7584 35.7056 66.7087 35.6449C66.6594 35.5841 66.6348 35.5065 66.6348 35.412C66.6348 35.2989 66.6745 35.2056 66.754 35.132C66.8339 35.0588 66.9409 35.0221 67.0751 35.0221ZM68.6554 35.6955C68.6554 35.7107 68.6529 35.7537 68.6478 35.8246H67.9609C67.9676 35.963 67.9914 36.0595 68.0323 36.1142C68.0736 36.1692 68.132 36.1967 68.2075 36.1967C68.2595 36.1967 68.3065 36.1878 68.3484 36.1699C68.3903 36.1524 68.4356 36.1242 68.4843 36.0854L68.6126 36.2626C68.4952 36.3773 68.3543 36.4347 68.1899 36.4347C68.0154 36.4347 67.8815 36.3739 67.7883 36.2524C67.6953 36.1309 67.6489 35.9596 67.6489 35.7385C67.6489 35.5175 67.6933 35.3428 67.7822 35.2145C67.8711 35.0863 67.9969 35.0221 68.1597 35.0221C68.3157 35.0221 68.4373 35.079 68.5245 35.1928C68.6118 35.3068 68.6554 35.4744 68.6554 35.6955ZM68.3534 35.6221V35.6044C68.3534 35.4778 68.3383 35.3853 68.3081 35.3269C68.2779 35.2689 68.2293 35.2398 68.1622 35.2398C68.1001 35.2398 68.0526 35.268 68.0198 35.3244C67.9872 35.3811 67.9676 35.4803 67.9609 35.6221H68.3534ZM69.4576 35.0247C69.4962 35.0247 69.5306 35.0306 69.5608 35.0424L69.5105 35.3411C69.4769 35.3327 69.4459 35.3284 69.4174 35.3284C69.3536 35.3284 69.3033 35.3563 69.2664 35.412C69.2295 35.4677 69.2009 35.5504 69.1808 35.6601V36.3967H68.8713V35.0576H69.1406L69.1632 35.2905C69.2253 35.1133 69.3234 35.0247 69.4576 35.0247ZM70.3283 35.0576H70.6328L70.2855 36.3967H69.9206L69.5633 35.0576H69.8829L70.1018 36.1461L70.3283 35.0576ZM71.7274 35.6955C71.7274 35.7107 71.7249 35.7537 71.7198 35.8246H71.0329C71.0396 35.963 71.0634 36.0595 71.1043 36.1142C71.1456 36.1692 71.204 36.1967 71.2795 36.1967C71.3315 36.1967 71.3784 36.1878 71.4204 36.1699C71.4623 36.1524 71.5076 36.1242 71.5563 36.0854L71.6846 36.2626C71.5672 36.3773 71.4262 36.4347 71.2618 36.4347C71.0874 36.4347 70.9535 36.3739 70.8602 36.2524C70.7673 36.1309 70.7208 35.9596 70.7208 35.7385C70.7208 35.5175 70.7653 35.3428 70.8542 35.2145C70.9431 35.0863 71.0689 35.0221 71.2317 35.0221C71.3877 35.0221 71.5093 35.079 71.5965 35.1928C71.6838 35.3068 71.7274 35.4744 71.7274 35.6955ZM71.4254 35.6221V35.6044C71.4254 35.4778 71.4103 35.3853 71.3801 35.3269C71.3499 35.2689 71.3013 35.2398 71.2342 35.2398C71.1721 35.2398 71.1246 35.268 71.0917 35.3244C71.0592 35.3811 71.0396 35.4803 71.0329 35.6221H71.4254ZM72.3157 34.6475H73.4003L73.365 34.9006H73.0077V36.3967H72.6881V34.9006H72.3157V34.6475ZM74.0193 35.0221C74.187 35.0221 74.3174 35.0812 74.4103 35.1993C74.5036 35.3175 74.5502 35.493 74.5502 35.7259C74.5502 35.9487 74.5033 36.1225 74.4093 36.2474C74.3154 36.3723 74.1854 36.4347 74.0193 36.4347C73.8532 36.4347 73.7232 36.3734 73.6292 36.2509C73.5353 36.1287 73.4883 35.9537 73.4883 35.7259C73.4883 35.4997 73.5353 35.3259 73.6292 35.2044C73.7232 35.0829 73.8532 35.0221 74.0193 35.0221ZM74.0193 35.2576C73.9471 35.2576 73.8943 35.2933 73.8608 35.3649C73.8272 35.4368 73.8104 35.5571 73.8104 35.7259C73.8104 35.8963 73.8272 36.0173 73.8608 36.0889C73.8943 36.1608 73.9471 36.1967 74.0193 36.1967C74.0914 36.1967 74.1443 36.1608 74.1778 36.0889C74.2114 36.0173 74.2281 35.8963 74.2281 35.7259C74.2281 35.5554 74.2114 35.4348 74.1778 35.3639C74.1443 35.293 74.0914 35.2576 74.0193 35.2576ZM75.431 34.488L75.7405 34.5209V36.3967H75.4662L75.4511 36.2423C75.3722 36.3706 75.2708 36.4347 75.1466 36.4347C75.0091 36.4347 74.9037 36.3726 74.8306 36.2484C74.7578 36.1245 74.7213 35.9512 74.7213 35.7284C74.7213 35.5867 74.7401 35.4621 74.7777 35.3548C74.8156 35.2478 74.8681 35.1656 74.9352 35.1082C75.0023 35.0508 75.0795 35.0221 75.1667 35.0221C75.2741 35.0221 75.3622 35.0669 75.431 35.1563V34.488ZM75.2347 36.1993C75.2733 36.1993 75.308 36.1858 75.3389 36.1588C75.3701 36.1318 75.4008 36.0929 75.431 36.0423V35.3917C75.3773 35.3006 75.316 35.255 75.2473 35.255C75.1114 35.255 75.0434 35.412 75.0434 35.7259C75.0434 35.8963 75.0602 36.0178 75.0938 36.0904C75.1273 36.163 75.1743 36.1993 75.2347 36.1993ZM76.8774 36.0727C76.8774 36.1166 76.8832 36.149 76.895 36.1699C76.9067 36.1912 76.926 36.2086 76.9529 36.2221L76.8899 36.4296C76.8212 36.4212 76.7663 36.4026 76.7254 36.3739C76.6841 36.3453 76.6534 36.3014 76.6333 36.2423C76.5561 36.3706 76.4479 36.4347 76.3087 36.4347C76.198 36.4347 76.1099 36.3971 76.0445 36.3218C75.979 36.2469 75.9463 36.147 75.9463 36.0221C75.9463 35.8769 75.9913 35.7664 76.0812 35.6904C76.1708 35.6145 76.3011 35.5765 76.4722 35.5765H76.5754V35.4829C76.5754 35.3985 76.5608 35.3389 76.5316 35.3041C76.5021 35.2697 76.4546 35.2525 76.3892 35.2525C76.3103 35.2525 76.2122 35.2744 76.0948 35.3183L76.0243 35.1158C76.0914 35.0854 76.161 35.0621 76.2332 35.0459C76.3053 35.0301 76.3741 35.0221 76.4395 35.0221C76.7314 35.0221 76.8774 35.1706 76.8774 35.4677V36.0727ZM76.3917 36.2094C76.4722 36.2094 76.5335 36.1537 76.5754 36.0423V35.7613H76.5024C76.4169 35.7613 76.3545 35.7807 76.3152 35.8195C76.2756 35.8584 76.2558 35.9183 76.2558 35.9993C76.2558 36.0685 76.2676 36.1208 76.2911 36.1562C76.3145 36.1917 76.3481 36.2094 76.3917 36.2094ZM78.1079 35.0576L77.7556 36.4018C77.712 36.5638 77.6415 36.6912 77.5442 36.784C77.4469 36.8769 77.3169 36.9309 77.1542 36.9461L77.1189 36.7258C77.2246 36.7039 77.304 36.6688 77.357 36.6205C77.4097 36.5726 77.4511 36.498 77.4813 36.3967H77.3655L77.0283 35.0576H77.3429L77.5643 36.1891L77.8009 35.0576H78.1079Z" fill="#1C4B82"/>
</g>
</g>
</g>
</g>
<g clip-path="url(#clip7_155_91)">
<g clip-path="url(#clip8_155_91)">
<path d="M21.046 0.732849C16.3563 0.732849 11.9479 2.57008 8.63202 5.90587L5.43999 9.11706C2.1241 12.4529 0.297836 16.8877 0.297836 21.6056C0.297836 26.3235 2.1241 30.7584 5.43999 34.0942C8.75587 37.43 13.1643 39.2672 17.854 39.2672C22.5437 39.2672 26.9521 37.43 30.268 34.0942L33.4601 30.883C36.7759 27.5472 38.6022 23.1123 38.6022 18.3944C38.6022 13.6765 36.7759 9.24166 33.4601 5.90587C30.1442 2.57008 25.7358 0.732849 21.046 0.732849ZM28.7635 32.5806C22.7476 38.6318 12.9604 38.6318 6.9445 32.5806C0.929008 26.529 0.929008 16.6822 6.9445 10.6306C9.95224 7.60523 13.9031 6.09169 17.854 6.09169C21.8049 6.09169 25.7554 7.60481 28.7635 10.6306C34.779 16.6822 34.779 26.529 28.7635 32.5806ZM35.1369 24.7072C35.317 23.6832 35.4084 22.6455 35.4102 21.6056C35.4102 16.8877 33.5839 12.4529 30.268 9.11706C26.9521 5.78128 22.5437 3.94404 17.854 3.94404C16.8092 3.94404 15.7792 4.04038 14.7714 4.21892C16.7468 3.3361 18.8844 2.88013 21.046 2.8805C24.9969 2.8805 28.9474 4.39361 31.9556 7.41941C36.5938 12.0859 37.6518 19.0075 35.1369 24.7072Z" fill="#1C4B82"/>
<path d="M17.854 8.22562C15.1962 8.2226 12.5992 9.02533 10.4017 10.5291C10.365 10.5514 10.33 10.5765 10.297 10.604C6.83044 13.0214 4.55388 17.05 4.55388 21.6056C4.55388 28.9832 10.5204 34.9856 17.854 34.9856C22.3829 34.9856 26.3882 32.6949 28.7912 29.2067C28.8171 29.1729 28.8427 29.1395 28.8644 29.1035C30.3587 26.8922 31.1565 24.2795 31.1541 21.6056C31.1541 14.228 25.1876 8.22562 17.854 8.22562ZM17.854 32.8448C11.6934 32.8448 6.6819 27.8032 6.6819 21.6056C6.6819 19.7919 7.11389 18.0784 7.87572 16.5602C7.79102 17.1679 7.74765 17.7807 7.74591 18.3944C7.74591 25.772 13.7125 31.7744 21.046 31.7744C21.6602 31.7744 22.2684 31.7269 22.8693 31.6438C21.3143 32.4343 19.5963 32.8457 17.854 32.8448ZM27.1837 27.7779C25.3634 28.9897 23.2287 29.6351 21.046 29.6336C14.8854 29.6336 9.87393 24.592 9.87393 18.3944C9.87244 16.1986 10.514 14.0511 11.7185 12.2199C13.5384 11.0094 15.6723 10.3647 17.854 10.3664C24.0146 10.3664 29.0261 15.408 29.0261 21.6056C29.0278 23.8004 28.387 25.9472 27.1837 27.7779Z" fill="#1C4B82"/>
</g>
</g>
</g>
<defs>
<clipPath id="clip0_155_91">
<rect width="103.404" height="38.5343" fill="white" transform="translate(0.297836 0.732849)"/>
</clipPath>
<clipPath id="clip1_155_91">
<rect width="61.9812" height="33.8921" fill="white" transform="translate(41.721 3.05396)"/>
</clipPath>
<clipPath id="clip2_155_91">
<rect width="61.9812" height="33.8921" fill="white" transform="translate(41.721 3.05396)"/>
</clipPath>
<clipPath id="clip3_155_91">
<rect width="61.9812" height="28.1978" fill="white" transform="translate(41.721 3.05396)"/>
</clipPath>
<clipPath id="clip4_155_91">
<rect width="61.9812" height="28.1978" fill="white" transform="translate(41.721 3.05396)"/>
</clipPath>
<clipPath id="clip5_155_91">
<rect width="36.3892" height="2.55679" fill="white" transform="translate(41.721 34.3893)"/>
</clipPath>
<clipPath id="clip6_155_91">
<rect width="36.3892" height="2.55679" fill="white" transform="translate(41.721 34.3893)"/>
</clipPath>
<clipPath id="clip7_155_91">
<rect width="38.3044" height="38.5343" fill="white" transform="translate(0.297836 0.732849)"/>
</clipPath>
<clipPath id="clip8_155_91">
<rect width="38.3044" height="38.5343" fill="white" transform="translate(0.297836 0.732849)"/>
</clipPath>
</defs>
</svg>
