<svg width="107" height="81" viewBox="0 0 107 81" fill="none" xmlns="http://www.w3.org/2000/svg">
<path d="M49.107 0.728569C39.9352 1.89766 32.5103 4.82038 25.0127 10.1543C14.9673 17.3881 7.83367 29.8827 6.15944 43.181C5.86827 45.3 5.35872 47.0536 4.99476 47.0536C4.558 47.0536 3.46611 47.8574 2.51981 48.8803C1.13675 50.2686 0.699997 51.4377 0.699997 53.9951C0.699997 61.3019 8.34321 64.3707 13.5115 59.1829C17.0055 55.6757 16.9327 52.2415 13.3659 48.6611C10.8182 46.1038 10.7454 45.8846 11.1821 42.1581C13.0747 25.8639 26.5413 10.885 43.2836 6.57401C45.613 5.98947 47.724 5.62412 47.8696 5.77026C48.0151 5.91639 45.6858 8.91219 42.7741 12.4925C33.9662 23.0143 26.1774 32.9515 26.1774 33.6091C26.1774 33.9745 27.8516 40.8429 29.8898 48.8073C33.6022 63.2017 33.6022 63.3478 32.1464 64.5169C27.2693 68.3895 28.2884 76.8654 33.9662 79.5689C36.0044 80.5918 39.28 80.738 54.5665 80.5187L72.7646 80.2995L75.094 77.8883C77.205 75.7693 77.4961 75.0387 77.4961 71.4583C77.4961 67.878 77.2778 67.1473 75.3124 65.3937L73.0558 63.4209L76.9866 48.2958L80.8446 33.2438L73.0558 23.5258C68.6882 18.1918 63.52 11.908 61.5546 9.49673L57.9149 5.25878L60.3899 5.77026C76.1859 9.13138 88.2694 19.434 93.5105 34.1206C95.5487 39.7468 96.6406 47.0536 95.4031 47.0536C94.8935 47.0536 93.7289 47.8574 92.7826 48.8803C91.3995 50.2686 90.9627 51.4377 90.9627 54.0682C90.9627 56.9178 91.3267 57.7946 93.2193 59.5483C96.9317 62.9824 103.41 62.0326 105.376 57.6485C107.05 54.0682 106.468 51.4377 103.483 48.515C101.008 46.1768 100.644 45.3731 100.207 41.3543C98.3876 23.9642 83.0284 6.64707 65.4854 2.18993C61.045 1.09391 52.4555 0.290161 49.107 0.728569ZM57.187 5.11265C56.9686 5.77026 56.7503 6.57401 56.7503 6.93935C56.7503 7.30469 55.9495 8.10844 54.9304 8.76605C53.1106 9.93514 52.965 9.93514 51.2908 8.32764C50.2717 7.37776 49.471 5.98946 49.471 5.25878C49.471 4.16276 50.0533 3.94356 53.5474 3.94356C56.9686 3.94356 57.551 4.16276 57.187 5.11265ZM48.8159 31.344C44.8123 34.7782 45.6858 41.0621 50.5629 43.108C57.9149 46.1768 63.8839 37.2625 58.2061 31.5632L56.0223 29.3712L55.804 19.5801C55.7312 14.1731 55.804 9.789 56.0223 9.789C56.2407 9.789 56.823 10.5197 57.4054 11.3965C57.9877 12.3464 62.2825 17.8995 67.014 23.745L75.6035 34.3398L72.1095 48.2227L68.6154 62.0326L53.4018 62.2518L38.1882 62.3979L34.6213 48.4419C31.1273 34.6321 31.1273 34.486 32.4375 32.7323C33.2383 31.7824 37.6058 26.3023 42.1917 20.53L50.5629 10.0813L50.7813 19.8724L50.9996 29.5904L48.8159 31.344ZM55.3672 35.0705C56.6047 36.6049 55.3672 38.6508 53.0378 38.6508C51.0724 38.6508 50.3445 36.6049 51.6548 34.9974C52.8195 33.6091 54.1297 33.6091 55.3672 35.0705ZM10.3086 51.9492C11.0365 52.6068 11.6189 53.4836 11.6189 53.849C11.6189 54.945 9.36231 57.2831 8.27042 57.2831C7.03295 57.2831 5.06755 55.2372 5.06755 53.9951C5.06755 52.826 7.03295 50.707 8.12484 50.707C8.56159 50.707 9.58069 51.2185 10.3086 51.9492ZM100.571 51.9492C101.299 52.6068 101.882 53.4836 101.882 53.849C101.882 54.945 99.6251 57.2831 98.5332 57.2831C97.2957 57.2831 95.3303 55.2372 95.3303 53.9951C95.3303 52.826 97.2957 50.707 98.3876 50.707C98.8243 50.707 99.8434 51.2185 100.571 51.9492ZM72.1823 68.974C73.7837 70.9469 73.7837 71.8237 72.3279 73.9426C71.236 75.5501 71.0176 75.5501 53.693 75.5501C38.3337 75.5501 35.9316 75.404 34.7669 74.308C32.9471 72.7005 33.0927 70.07 35.1309 68.4625C36.6595 67.2935 38.4065 67.1473 53.8386 67.2935C70.4353 67.3665 70.9448 67.4396 72.1823 68.974Z" fill="#1C4B82"/>
</svg>
