<svg width="579" height="296" viewBox="0 0 579 296" fill="none" xmlns="http://www.w3.org/2000/svg">
<g clip-path="url(#clip0_494_1715)">
<path d="M-10.8759 630.518C-30.4111 508.198 -49.9462 385.878 -12.9372 315.784C24.0719 245.69 117.627 227.823 208.491 207.471C299.355 187.119 387.526 164.279 456.893 124.071C526.259 83.863 576.819 26.2848 601.256 -55.4217C625.692 -137.128 624.003 -242.965 622.314 -348.802L930.576 -64.0831C878.601 -7.81115 826.627 48.4608 774.653 104.733C722.679 161.005 670.704 217.277 618.73 273.548C566.756 329.82 514.781 386.092 462.807 442.364C410.833 498.636 358.859 554.908 306.884 611.18C254.91 667.452 202.936 723.724 150.962 779.996L-10.8759 630.518Z" fill="#1C4B82"/>
</g>
<defs>
<clipPath id="clip0_494_1715">
<rect width="579" height="296" fill="white" transform="matrix(-1 0 0 -1 579 296)"/>
</clipPath>
</defs>
</svg>
