<svg width="579" height="296" viewBox="0 0 579 296" fill="none" xmlns="http://www.w3.org/2000/svg">
<g clip-path="url(#clip0_494_1712)">
<path d="M589.876 -334.518C609.411 -212.198 628.946 -89.8782 591.937 -19.784C554.928 50.3102 461.373 68.1767 370.509 88.529C279.645 108.881 191.474 131.721 122.107 171.929C52.741 212.137 2.18088 269.715 -22.2556 351.422C-46.6921 433.128 -45.003 538.965 -43.3139 644.802L-351.576 360.083C-299.601 303.811 -247.627 247.539 -195.653 191.267C-143.679 134.995 -91.7043 78.7235 -39.73 22.4516C12.2443 -33.8204 64.2185 -90.0923 116.193 -146.364C168.167 -202.636 220.141 -258.908 272.116 -315.18C324.09 -371.452 376.064 -427.724 428.038 -483.996L589.876 -334.518Z" fill="#1C4B82"/>
</g>
<defs>
<clipPath id="clip0_494_1712">
<rect width="579" height="296" fill="white"/>
</clipPath>
</defs>
</svg>
